# Blender v2.79 (sub 0) OBJ File: 'Flower_2.blend'
# www.blender.org
mtllib Flower_2.mtl
o Flower_2_Plane.045
v 0.050837 0.223832 0.027447
v 0.198523 0.221440 0.058139
v 0.114802 0.242965 0.163250
v -0.004662 0.309197 0.144897
v -0.040511 0.353667 0.021015
v 0.043210 0.332142 -0.084096
v 0.162727 0.266029 -0.065533
v 0.049175 0.224278 0.025692
v 0.011235 0.164502 0.011948
v 0.000934 0.118330 0.005283
v -0.003418 -0.006742 -0.007876
v 0.051078 0.221735 0.025796
v 0.019383 0.164307 0.013623
v 0.009082 0.118134 0.006958
v 0.004730 -0.006938 -0.006201
v 0.048255 0.223956 0.030183
v 0.010063 0.164028 0.017844
v -0.000389 0.117769 0.012050
v -0.005095 -0.007497 0.000986
v 0.050148 0.221409 0.030348
v 0.018229 0.163845 0.019430
v 0.007777 0.117586 0.013636
v 0.003071 -0.007679 0.002572
vt 0.621969 0.409086
vt 0.445692 0.302306
vt 0.626305 0.203036
vt 0.441356 0.508356
vt 0.617633 0.615137
vt 0.798246 0.515867
vt 0.802582 0.309816
vt 0.543555 0.152593
vt 0.544850 0.147659
vt 0.475504 0.131975
vt 0.474209 0.136909
vt 0.570652 0.153149
vt 0.571948 0.148215
vt 0.608718 0.136909
vt 0.610013 0.131975
vt 0.543555 0.152593
vt 0.474209 0.136909
vt 0.475504 0.131975
vt 0.544850 0.147659
vt 0.570652 0.153149
vt 0.571948 0.148215
vt 0.608718 0.136909
vt 0.610013 0.131975
vn 0.4408 0.8793 0.1802
vn 0.2852 0.9214 -0.2641
vn -0.0045 0.9950 0.0992
vn 0.6834 0.7050 -0.1895
vn 0.7920 0.5683 0.2230
vn 0.5224 0.6293 0.5753
vn 0.1192 0.8422 0.5257
vn -0.5712 0.1719 -0.8025
vn 0.8098 -0.0295 -0.5859
vn 0.6652 -0.5459 -0.5094
vn -0.4660 -0.5007 -0.7295
vn -0.5361 0.3600 -0.7635
vn 0.7647 -0.1780 -0.6193
vn 0.0802 0.8745 -0.4783
vn 0.8992 0.0934 -0.4275
vn -0.8385 0.0517 0.5425
vn -0.6887 -0.6017 0.4046
vn 0.4436 -0.6421 0.6251
vn 0.5272 -0.1578 0.8349
vn -0.8008 0.2444 0.5467
vn 0.4722 -0.3085 0.8257
vn -0.1443 0.7808 0.6078
vn 0.6648 -0.0008 0.7470
usemtl Flowers
s 1
f 1/1/1 3/2/2 2/3/3
f 1/1/1 4/4/4 3/2/2
f 1/1/1 5/5/5 4/4/4
f 1/1/1 6/6/6 5/5/5
f 1/1/1 7/7/7 6/6/6
f 1/1/1 2/3/3 7/7/7
f 10/8/8 14/9/9 15/10/10 11/11/11
f 9/12/12 13/13/13 14/9/9 10/8/8
f 8/14/14 12/15/15 13/13/13 9/12/12
f 18/16/16 19/17/17 23/18/18 22/19/19
f 17/20/20 18/16/16 22/19/19 21/21/21
f 16/22/22 17/20/20 21/21/21 20/23/23
f 10/8/8 11/11/11 19/17/17 18/16/16
f 8/14/14 9/12/12 17/20/20 16/22/22
f 12/15/15 8/14/14 16/22/22 20/23/23
f 15/10/10 14/9/9 22/19/19 23/18/18
f 13/13/13 12/15/15 20/23/23 21/21/21
f 9/12/12 10/8/8 18/16/16 17/20/20
f 11/11/11 15/10/10 23/18/18 19/17/17
f 14/9/9 13/13/13 21/21/21 22/19/19
