# Blender v2.79 (sub 0) OBJ File: 'Grass_Large.blend'
# www.blender.org
mtllib Grass_Large.mtl
o Grass_Large_Plane.001
v -0.112366 0.110453 -0.142629
v -0.086227 0.123402 -0.143412
v -0.017331 -0.002304 -0.140138
v -0.161801 0.100396 -0.094519
v -0.139405 0.111491 -0.095267
v -0.095740 -0.002304 -0.093050
v -0.228950 0.198105 -0.119511
v -0.191802 0.161811 -0.106112
v -0.060451 0.114913 -0.025791
v -0.034311 0.127876 -0.026208
v -0.045841 -0.002304 -0.025739
v -0.006401 -0.002304 -0.025739
v -0.248862 0.393370 -0.193757
v -0.211350 0.371585 -0.177072
v -0.090238 0.220247 -0.045045
v -0.122064 0.226188 -0.053414
v -0.068097 -0.002304 -0.140138
v -0.129531 -0.002304 -0.093050
v 0.055745 0.140446 -0.040294
v 0.026590 0.141594 -0.040000
v 0.068214 -0.002304 -0.038386
v 0.029196 -0.002304 -0.038386
v 0.096442 0.442712 -0.229709
v 0.066896 0.391249 -0.194232
v -0.240988 0.265826 -0.202408
v -0.274154 0.275229 -0.202339
v 0.036960 0.272015 -0.086927
v 0.066303 0.296923 -0.108901
v -0.007887 0.145766 -0.195185
v -0.023137 0.143946 -0.195108
v -0.001235 -0.002810 -0.193769
v -0.035964 0.404201 -0.311941
v -0.042464 0.359531 -0.280258
v 0.018885 -0.002810 -0.193769
v -0.037135 0.250435 -0.221198
v -0.026102 0.274839 -0.232919
v 0.235463 0.117060 -0.124041
v 0.209324 0.129992 -0.125404
v 0.197800 -0.002304 -0.121550
v 0.313954 0.220874 -0.160330
v 0.284069 0.205083 -0.151151
v 0.199587 0.123576 -0.079864
v 0.173448 0.136516 -0.080975
v 0.122484 -0.002304 -0.077211
v 0.372071 0.393912 -0.245459
v 0.334696 0.370231 -0.232852
v 0.273791 0.304297 -0.171332
v 0.305582 0.308503 -0.180919
v 0.132750 0.114910 -0.159447
v 0.106610 0.127871 -0.159741
v 0.118139 -0.002304 -0.158559
v 0.321161 0.393370 -0.326576
v 0.283649 0.371585 -0.309891
v 0.162537 0.219244 -0.187079
v 0.194363 0.225217 -0.193261
v 0.158360 -0.002304 -0.121550
v 0.161924 -0.002304 -0.077211
v 0.078699 -0.002304 -0.158559
v 0.118660 0.145730 -0.036807
v 0.133910 0.143898 -0.037207
v 0.146737 0.391529 -0.188340
v 0.153237 0.350677 -0.150604
v 0.091888 -0.002810 -0.033266
v 0.111965 -0.002810 -0.033266
v 0.147908 0.248431 -0.075123
v 0.136875 0.272352 -0.087055
v -0.140949 0.110480 -0.000000
v -0.114810 0.123443 -0.000000
v -0.057239 -0.002304 0.000000
v -0.302737 0.282170 0.000000
v -0.269571 0.273022 0.000000
v -0.075756 0.114914 0.040168
v -0.049617 0.127877 0.040168
v -0.061146 -0.002304 0.040168
v -0.264168 0.427750 0.040168
v -0.226656 0.401219 0.040168
v -0.105544 0.221091 0.040168
v -0.137370 0.227875 0.040168
v -0.096679 -0.002304 0.000000
v -0.021706 -0.002304 0.040168
v 0.014802 0.140459 0.001661
v -0.014353 0.141603 0.001661
v 0.027271 -0.002304 0.001661
v 0.055499 0.482284 0.001661
v 0.025953 0.421145 0.001661
v -0.011663 -0.002304 0.001661
v -0.003983 0.276312 0.001661
v 0.025360 0.305182 0.001661
v 0.307232 0.049841 0.004642
v 0.283696 0.056111 0.004642
v 0.300959 -0.002304 0.004642
v 0.355883 0.160954 0.004642
v 0.313569 0.104666 0.004642
v 0.170735 0.114914 0.045125
v 0.144595 0.127877 0.045125
v 0.359146 0.427750 0.045125
v 0.321634 0.401219 0.045125
v 0.200522 0.221091 0.045125
v 0.232348 0.227875 0.045125
v 0.275329 -0.002304 0.004642
v 0.156125 -0.002304 0.045125
v 0.116685 -0.002304 0.045125
v 0.158828 0.145773 -0.050646
v 0.174078 0.143952 -0.050646
v 0.131987 -0.002810 -0.050646
v 0.186905 0.421121 -0.050646
v 0.193405 0.369787 -0.050646
v 0.152133 -0.002810 -0.050646
v 0.188076 0.251932 -0.050646
v 0.177043 0.277613 -0.050646
v 0.189081 0.110481 0.135065
v 0.169911 0.114670 0.137457
v 0.261886 0.197006 0.149684
v 0.227481 0.182202 0.148227
v 0.071323 0.114913 0.056326
v 0.045184 0.127876 0.056743
v 0.017273 -0.002304 0.056274
v 0.259735 0.380912 0.150676
v 0.222223 0.359127 0.133991
v 0.101111 0.220247 0.075579
v 0.132936 0.226188 0.083949
v 0.150108 -0.002304 0.131599
v 0.124477 -0.002304 0.131599
v 0.056713 -0.002304 0.056274
v -0.266250 0.049841 -0.019067
v -0.242714 0.056111 -0.019067
v -0.314901 0.160464 -0.006523
v -0.272587 0.104648 -0.017100
v -0.220153 0.117060 -0.000810
v -0.194013 0.129992 0.000553
v -0.143049 -0.002304 -0.003301
v -0.268758 0.205083 0.026300
v -0.269245 0.100396 0.035765
v -0.246849 0.111491 0.036513
v -0.336395 0.198078 0.060956
v -0.299246 0.161811 0.047359
v -0.259977 -0.002304 -0.019067
v -0.234347 -0.002304 -0.019067
v -0.182489 -0.002304 -0.003301
v -0.236976 -0.002304 0.034296
v -0.203184 -0.002304 0.034296
v -0.298644 0.220874 0.035479
v -0.130151 0.136841 0.102645
v -0.101639 0.147736 0.103028
v -0.279466 0.417006 0.171427
v -0.247610 0.396098 0.156568
v -0.188040 0.296640 0.126484
v -0.220456 0.306355 0.137039
v -0.103361 -0.002304 0.100024
v -0.062287 -0.002304 0.100024
vn 0.0014 -0.2028 -0.9792
vn 0.0001 -0.1703 -0.9854
vn -0.0056 -0.0268 -0.9996
vn 0.0771 -0.0627 -0.9950
vn 0.0699 -0.0591 -0.9958
vn -0.0093 -0.0203 -0.9997
vn 0.1639 -0.1051 -0.9808
vn -0.0663 0.0645 0.9957
vn 0.0057 0.0031 1.0000
vn -0.0776 0.0741 0.9942
vn -0.1235 0.2643 0.9565
vn -0.0216 0.6399 0.7681
vn -0.0574 0.5236 0.8500
vn 0.1036 0.1814 0.9779
vn 0.1072 0.1874 0.9764
vn 0.0045 0.0125 0.9999
vn 0.0000 0.0000 -1.0000
vn 0.0077 -0.3535 -0.9354
vn -0.0712 0.6095 0.7895
vn 0.1429 0.4176 0.8973
vn 0.0744 0.1420 0.9871
vn 0.0772 0.1470 0.9861
vn 0.0016 0.0096 0.9999
vn 0.1435 0.4479 0.8825
vn 0.0382 0.5850 0.8101
vn -0.0172 0.6484 0.7610
vn 0.1360 0.4668 0.8738
vn 0.1473 0.3110 0.9389
vn -0.0548 -0.1313 -0.9898
vn 0.0148 -0.0304 -0.9994
vn -0.0492 -0.1232 -0.9911
vn 0.0871 0.2017 0.9756
vn 0.0930 0.2119 0.9728
vn -0.0114 0.0280 0.9995
vn 0.0562 0.1068 0.9927
vn 0.0653 0.1219 0.9904
vn -0.0027 0.0088 0.9999
vn 0.0988 0.3244 0.9407
vn 0.0422 0.5237 0.8508
vn 0.0112 0.6189 0.7853
vn -0.1230 -0.2294 -0.9655
vn -0.0197 0.1909 0.9814
vn 0.0125 0.0233 0.9996
vn -0.0212 0.1986 0.9798
vn -0.0345 0.4039 0.9142
vn 0.0519 0.5802 0.8127
vn 0.0000 0.0000 1.0000
vn 0.1326 0.5030 0.8540
vn 0.0726 0.6192 0.7819
vn -0.1461 0.6642 0.7331
vn 0.0543 -0.1472 0.9876
vn 0.0522 -0.1180 0.9916
vn 0.0478 -0.0580 0.9972
vn 0.0587 -0.2105 0.9758
vn 0.0663 0.0645 -0.9957
vn -0.0057 0.0031 -1.0000
vn 0.0776 0.0741 -0.9942
vn 0.1776 0.1445 -0.9734
vn 0.2728 0.1730 -0.9464
vn 0.2418 0.1639 -0.9564
vn -0.0728 0.0094 -0.9973
vn -0.0680 0.0088 -0.9976
vn -0.1448 0.0187 -0.9893
vn -0.0548 0.1313 -0.9898
vn -0.0492 0.1232 -0.9911
vn 0.0148 0.0304 -0.9994
vn 0.0791 -0.0616 0.9949
vn -0.0093 -0.0203 0.9997
vn 0.0717 -0.0582 0.9957
vn 0.1680 -0.1030 0.9804
vn -0.1230 0.2294 -0.9655
vn 0.0806 -0.0529 0.9953
vn -0.0023 -0.0200 0.9998
vn 0.0805 -0.0529 0.9953
vn 0.2017 -0.0916 0.9751
vn 0.2834 -0.1028 0.9535
vn 0.3207 -0.1077 0.9410
usemtl None
s 1
f 1//1 2//2 3//3 17//3
f 4//4 5//5 6//6 18//6
f 5//5 4//4 7//7 8//7
f 9//8 11//9 12//9 10//10
f 15//11 14//12 13//12 16//13
f 10//10 15//11 16//13 9//8
f 19//14 20//15 22//16 21//16
f 87//17 85//17 84//17 88//17
f 2//2 1//1 26//18 25//18
f 20//15 19//14 28//19 27//20
f 29//21 30//22 31//23 34//23
f 47//24 48//25 45//26 46//26
f 30//22 29//21 36//27 35//28
f 37//29 39//30 56//30 38//31
f 42//32 43//33 44//34 57//34
f 43//33 42//32 48//25 47//24
f 49//35 50//36 58//37 51//37
f 54//38 55//39 52//40 53//40
f 50//36 49//35 55//39 54//38
f 38//31 41//41 40//41 37//29
f 59//42 63//43 64//43 60//44
f 109//17 110//17 106//17 107//17
f 60//44 65//45 66//46 59//42
f 67//17 68//17 69//17 79//17
f 72//47 74//47 80//47 73//47
f 77//47 76//47 75//47 78//47
f 73//47 77//47 78//47 72//47
f 81//17 83//17 86//17 82//17
f 35//28 36//27 32//48 33//48
f 68//17 67//17 70//17 71//17
f 82//17 87//17 88//17 81//17
f 65//45 62//49 61//49 66//46
f 89//47 90//47 100//47 91//47
f 90//47 89//47 92//47 93//47
f 94//47 95//47 102//47 101//47
f 98//47 99//47 96//47 97//47
f 95//47 94//47 99//47 98//47
f 27//20 28//19 23//50 24//50
f 103//17 104//17 108//17 105//17
f 104//17 103//17 110//17 109//17
f 111//51 112//52 123//53 122//53
f 112//52 111//51 113//54 114//54
f 115//55 124//56 117//56 116//57
f 120//58 119//59 118//59 121//60
f 116//57 120//58 121//60 115//55
f 125//61 126//62 138//17 137//17
f 126//62 125//61 127//63 128//63
f 129//64 130//65 131//66 139//66
f 133//67 140//68 141//68 134//69
f 134//69 136//70 135//70 133//67
f 130//65 129//64 142//71 132//71
f 143//72 149//73 150//73 144//74
f 144//74 147//75 148//76 143//72
f 147//75 146//77 145//77 148//76
