# Blender v2.79 (sub 0) OBJ File: 'PalmTree_5.blend'
# www.blender.org
mtllib PalmTree_5.mtl
o PalmTree_5_Cube.010
v 0.159955 0.001864 -0.171816
v -0.015165 -0.003672 0.003773
v -0.015478 -0.003329 -0.350021
v -0.190722 -0.006913 -0.174615
v 0.121947 0.769773 -0.007433
v 0.010154 0.766490 0.101823
v 0.010259 0.769651 -0.120292
v -0.101269 0.769087 -0.009998
v 0.033786 0.469921 -0.226605
v 0.170156 0.465968 -0.087645
v 0.033777 0.469510 0.046523
v -0.101734 0.474736 -0.092235
v 0.116095 0.000032 -0.304918
v 0.116728 0.000465 -0.039265
v -0.147300 -0.006105 -0.041694
v -0.146890 -0.006767 -0.306675
v -0.045637 1.161061 0.051223
v -0.045637 1.118560 -0.068384
v 0.073966 1.117858 0.051673
v -0.045637 1.118557 0.170829
v -0.165240 1.119259 0.050773
v 0.094162 0.770779 -0.091381
v 0.093622 0.766969 0.075111
v -0.073274 0.767427 0.073406
v -0.073427 0.769453 -0.093292
v -0.105189 1.161410 0.110553
v 0.013915 1.160712 0.111001
v 0.013915 1.160712 -0.008107
v -0.105189 1.161411 -0.008555
v -0.067698 0.471666 -0.193893
v 0.136434 0.468411 -0.191018
v 0.136024 0.467079 0.014552
v -0.067926 0.473680 0.010714
v -0.135339 1.119085 -0.038819
v -0.125040 1.161526 0.050924
v -0.045637 1.161060 0.130628
v 0.044065 1.118033 -0.038145
v 0.033766 1.160596 0.051522
v 0.044065 1.118032 0.141265
v -0.045637 1.161062 -0.028182
v -0.135339 1.119084 0.140590
v -0.505930 0.895543 -0.036392
v 0.457428 1.120860 -0.174118
v -0.684689 0.502624 -1.487881
v 0.278669 0.727942 -1.625608
v -0.036272 1.130064 -0.008822
v -0.231995 0.765195 -1.527050
v 0.218404 1.222177 -1.433920
v 0.201326 1.499257 -1.230763
v -0.309338 1.536509 -1.132205
v -0.292260 1.259430 -1.335362
v -0.762032 1.273939 -1.093037
v -0.744954 0.996859 -1.296194
v -0.690331 1.280294 -0.649321
v -0.746804 1.328528 -0.935115
v 0.216553 1.553846 -1.072841
v 0.273027 1.505612 -0.787047
v -0.237683 1.543197 -0.688314
v -0.294110 1.591098 -0.974283
v -0.624870 1.171636 -0.392382
v -0.158586 1.413441 -0.375682
v 0.338488 1.396954 -0.530108
v -0.018240 0.921683 0.508638
v -0.284341 1.057711 -0.383074
v -1.179820 0.147123 0.797587
v -1.445922 0.283152 -0.094126
v -0.100554 1.127356 0.066060
v -1.328494 0.358624 0.376527
v -1.416752 0.782950 -0.053331
v -1.316545 1.090935 -0.054143
v -1.199117 1.166407 0.416509
v -1.299325 0.858423 0.417322
v -1.050444 0.954907 0.837569
v -1.150651 0.646922 0.838382
v -0.663043 1.089575 0.733167
v -0.927232 1.049869 0.810099
v -1.193333 1.185897 -0.081614
v -0.929145 1.225603 -0.158545
v -0.811656 1.301426 0.312136
v -1.075905 1.261370 0.389038
v -0.407375 1.066538 0.650184
v -0.501252 1.275602 0.211685
v -0.673476 1.202566 -0.241529
v 0.428747 0.866078 0.241346
v -0.547551 0.988343 0.080118
v 0.203336 0.471399 1.682905
v -0.772962 0.593664 1.521677
v -0.031670 1.050952 0.070601
v -0.263918 0.684805 1.580331
v -0.709368 1.093537 1.349419
v -0.660846 1.373576 1.156744
v -0.151802 1.464717 1.215398
v -0.200324 1.184678 1.408072
v 0.315452 1.251312 1.317972
v 0.266930 0.971273 1.510647
v 0.379933 1.257279 0.873986
v 0.342753 1.306440 1.162208
v -0.633546 1.428705 1.000980
v -0.596366 1.379544 0.712758
v -0.087259 1.471022 0.771254
v -0.124502 1.519845 1.059634
v 0.406182 1.146753 0.611497
v -0.055051 1.339031 0.451996
v -0.570117 1.269018 0.450269
v 0.140734 0.908815 -0.451180
v 0.064845 0.974015 0.540835
v 1.618517 0.599607 -0.378900
v 1.542627 0.664807 0.613114
v 0.003057 1.060131 0.032002
v 1.547479 0.783522 0.106402
v 1.334924 1.154711 0.592044
v 1.121787 1.423449 0.576152
v 1.126639 1.542163 0.069441
v 1.339776 1.273426 0.085333
v 1.197677 1.358248 -0.415862
v 1.410814 1.089511 -0.399970
v 0.750064 1.338038 -0.439341
v 1.036959 1.404240 -0.425937
v 0.961070 1.469440 0.566077
v 0.674174 1.403238 0.552673
v 0.678843 1.522282 0.045932
v 0.965922 1.588155 0.059366
v 0.493518 1.211849 -0.447467
v 0.366638 1.371246 0.035897
v 0.417629 1.277049 0.544547
v 0.411604 0.918495 -0.184961
v -0.453677 1.130543 0.451115
v 1.645979 1.310123 1.360693
v 0.780698 1.522170 1.996769
v -0.073312 1.148139 0.027367
v 1.208581 1.578845 1.625630
v 0.529009 1.672432 1.615545
v 0.311628 1.718828 1.310226
v 0.739511 1.775503 0.939087
v 0.956892 1.729108 1.244406
v 1.176910 1.506781 0.674150
v 1.394290 1.460385 0.979469
v 0.860845 1.418404 0.274966
v 1.057081 1.506040 0.513402
v 0.191800 1.718087 1.149477
v -0.004436 1.630451 0.911042
v 0.423364 1.687474 0.539691
v 0.619683 1.774763 0.778339
v 0.677834 1.267207 0.072542
v 0.200931 1.506226 0.292942
v -0.187447 1.479254 0.708618
v 0.276539 0.913286 0.466618
v -0.523110 1.129887 -0.284340
v -1.046663 1.313324 1.993620
v -1.846312 1.529925 1.242663
v -0.026816 1.147861 0.018993
v -1.394035 1.587818 1.603498
v -1.510153 1.683415 0.919033
v -1.243861 1.730807 0.643967
v -0.791584 1.788700 1.004802
v -1.057875 1.741308 1.279869
v -0.444213 1.514206 1.394924
v -0.710504 1.466814 1.669991
v -0.101973 1.423931 1.003298
v -0.305011 1.513449 1.244700
v -1.104660 1.730051 0.493743
v -0.901621 1.640532 0.252340
v -0.449147 1.698780 0.613052
v -0.652383 1.787943 0.854578
v 0.067352 1.269487 0.781868
v -0.242624 1.513639 0.343792
v -0.732297 1.486088 0.030911
v -0.339490 0.957010 0.331193
v 0.184366 1.125640 -0.343308
v -1.619442 1.268451 -0.583261
v -1.095586 1.437082 -1.257762
v -0.014616 1.139634 0.063464
v -1.342344 1.482153 -0.880920
v -0.820259 1.556578 -1.020762
v -0.587660 1.593475 -0.834384
v -0.834419 1.638546 -0.457542
v -1.067017 1.601650 -0.643921
v -1.111517 1.424845 -0.159883
v -1.344115 1.387948 -0.346261
v -0.783041 1.354562 0.076879
v -0.984940 1.424255 -0.062923
v -0.461083 1.592886 -0.737424
v -0.259184 1.523193 -0.597622
v -0.505833 1.568541 -0.220637
v -0.707842 1.637957 -0.360583
v -0.599078 1.234323 0.192002
v -0.282087 1.424403 -0.080163
v -0.075222 1.402954 -0.482499
v -0.296522 0.957010 -0.267823
v 0.325339 1.125640 0.317554
v 0.735034 1.268451 -1.455424
v 1.356894 1.437082 -0.870047
v -0.060761 1.139634 0.080945
v 1.005114 1.482153 -1.151384
v 1.094887 1.556579 -0.618401
v 0.887319 1.593475 -0.404498
v 0.535539 1.638546 -0.685834
v 0.743107 1.601650 -0.899737
v 0.265458 1.424845 -0.989875
v 0.473026 1.387948 -1.203778
v -0.001346 1.354562 -0.685297
v 0.156948 1.424255 -0.873049
v 0.778808 1.592886 -0.287672
v 0.620515 1.523193 -0.099919
v 0.268581 1.568541 -0.381160
v 0.427028 1.637957 -0.569008
v -0.133373 1.234323 -0.513063
v 0.107550 1.424403 -0.171722
v 0.488488 1.402954 0.072315
vt 0.127541 0.039309
vt 0.003716 0.039309
vt 0.003716 -0.293158
vt 0.127541 -0.293158
vt 0.992682 0.039309
vt 0.869504 0.039309
vt 0.869504 -0.293158
vt 0.992682 -0.293158
vt 0.746087 0.039309
vt 0.746087 -0.293158
vt 0.498201 0.039309
vt 0.375023 0.039309
vt 0.375023 -0.293158
vt 0.498201 -0.293158
vt 0.251606 0.039309
vt 0.251606 -0.293158
vt 0.251606 0.353729
vt 0.127541 0.353729
vt 0.622025 0.039309
vt 0.622025 -0.293158
vt 0.992682 0.353729
vt 0.869504 0.353729
vt 0.003716 0.353729
vt 0.251606 0.649864
vt 0.127541 0.649864
vt 0.003716 0.649864
vt 0.498201 0.353729
vt 0.375023 0.353729
vt 0.746087 0.353729
vt 0.992682 0.649864
vt 0.869504 0.649864
vt 0.746087 0.649864
vt 0.622025 0.353729
vt 0.498201 0.649864
vt 0.375023 0.649864
vt 0.622025 0.649864
vt 0.375023 0.649864
vt 0.498201 0.649864
vt 0.375023 0.649864
vt 0.869504 0.649864
vt 0.992682 0.649864
vt 0.869504 0.649864
vt 0.127541 0.649864
vt 0.251606 0.649864
vt 0.127541 0.649864
vt 0.622025 0.649864
vt 0.498201 0.649864
vt 0.251606 0.649864
vt 0.746087 0.649864
vt 0.746087 0.649864
vt 0.003716 0.649864
vt 0.003716 0.649864
vt 0.622025 0.649864
vt 0.174193 0.220122
vt 0.326012 0.219020
vt 0.326012 0.411434
vt 0.174193 0.413638
vt 0.022373 0.560059
vt 0.174193 0.560059
vt 0.174193 0.649221
vt 0.022373 0.649221
vt 0.326012 0.560059
vt 0.326012 0.649221
vt 0.022373 0.809930
vt 0.174193 0.809930
vt 0.174193 0.993904
vt 0.022373 0.993904
vt 0.326012 0.809930
vt 0.326012 0.993904
vt 0.022373 0.411435
vt 0.022373 0.219020
vt 0.022373 0.026605
vt 0.174193 0.026605
vt 0.326012 0.026605
vt 0.174193 0.220122
vt 0.326012 0.219020
vt 0.326012 0.411434
vt 0.174193 0.413638
vt 0.022373 0.560059
vt 0.174193 0.560059
vt 0.174193 0.649221
vt 0.022373 0.649221
vt 0.326012 0.560059
vt 0.326012 0.649221
vt 0.022373 0.809930
vt 0.174193 0.809930
vt 0.174193 0.993904
vt 0.022373 0.993904
vt 0.326012 0.809930
vt 0.326012 0.993904
vt 0.022373 0.411435
vt 0.022373 0.219020
vt 0.022373 0.026605
vt 0.174193 0.026605
vt 0.326012 0.026605
vt 0.174193 0.220122
vt 0.326012 0.219020
vt 0.326012 0.411434
vt 0.174193 0.413638
vt 0.022373 0.560059
vt 0.174193 0.560059
vt 0.174193 0.649221
vt 0.022373 0.649221
vt 0.326012 0.560059
vt 0.326012 0.649221
vt 0.022373 0.809930
vt 0.174193 0.809930
vt 0.174193 0.993904
vt 0.022373 0.993904
vt 0.326012 0.809930
vt 0.326012 0.993904
vt 0.022373 0.411435
vt 0.022373 0.219020
vt 0.022373 0.026605
vt 0.174193 0.026605
vt 0.326012 0.026605
vt 0.174193 0.220122
vt 0.326012 0.219020
vt 0.326012 0.411434
vt 0.174193 0.413638
vt 0.022373 0.560059
vt 0.174193 0.560059
vt 0.174193 0.649221
vt 0.022373 0.649221
vt 0.326012 0.560059
vt 0.326012 0.649221
vt 0.022373 0.809930
vt 0.174193 0.809930
vt 0.174193 0.993904
vt 0.022373 0.993904
vt 0.326012 0.809930
vt 0.326012 0.993904
vt 0.022373 0.411435
vt 0.022373 0.219020
vt 0.022373 0.026605
vt 0.174193 0.026605
vt 0.326012 0.026605
vt 0.174193 0.220122
vt 0.326012 0.219020
vt 0.326012 0.411434
vt 0.174193 0.413638
vt 0.022373 0.560059
vt 0.174193 0.560059
vt 0.174193 0.649221
vt 0.022373 0.649221
vt 0.326012 0.560059
vt 0.326012 0.649221
vt 0.022373 0.809930
vt 0.174193 0.809930
vt 0.174193 0.993904
vt 0.022373 0.993904
vt 0.326012 0.809930
vt 0.326012 0.993904
vt 0.022373 0.411435
vt 0.022373 0.219020
vt 0.022373 0.026605
vt 0.174193 0.026605
vt 0.326012 0.026605
vt 0.174193 0.220122
vt 0.326012 0.219020
vt 0.326012 0.411434
vt 0.174193 0.413638
vt 0.022373 0.560059
vt 0.174193 0.560059
vt 0.174193 0.649221
vt 0.022373 0.649221
vt 0.326012 0.560059
vt 0.326012 0.649221
vt 0.022373 0.809930
vt 0.174193 0.809930
vt 0.174193 0.993904
vt 0.022373 0.993904
vt 0.326012 0.809930
vt 0.326012 0.993904
vt 0.022373 0.411435
vt 0.022373 0.219020
vt 0.022373 0.026605
vt 0.174193 0.026605
vt 0.326012 0.026605
vt 0.174193 0.220122
vt 0.326012 0.219020
vt 0.326012 0.411434
vt 0.174193 0.413638
vt 0.022373 0.560059
vt 0.174193 0.560059
vt 0.174193 0.649221
vt 0.022373 0.649221
vt 0.326012 0.560059
vt 0.326012 0.649221
vt 0.022373 0.809930
vt 0.174193 0.809930
vt 0.174193 0.993904
vt 0.022373 0.993904
vt 0.326012 0.809930
vt 0.326012 0.993904
vt 0.022373 0.411435
vt 0.022373 0.219020
vt 0.022373 0.026605
vt 0.174193 0.026605
vt 0.326012 0.026605
vt 0.174193 0.220122
vt 0.326012 0.219020
vt 0.326012 0.411434
vt 0.174193 0.413638
vt 0.022373 0.560059
vt 0.174193 0.560059
vt 0.174193 0.649221
vt 0.022373 0.649221
vt 0.326012 0.560059
vt 0.326012 0.649221
vt 0.022373 0.809930
vt 0.174193 0.809930
vt 0.174193 0.993904
vt 0.022373 0.993904
vt 0.326012 0.809930
vt 0.326012 0.993904
vt 0.022373 0.411435
vt 0.022373 0.219020
vt 0.022373 0.026605
vt 0.174193 0.026605
vt 0.326012 0.026605
vn 0.9977 0.0684 -0.0023
vn 0.7202 -0.0693 0.6903
vn 0.7069 -0.1092 0.6989
vn 0.9993 -0.0154 -0.0353
vn 0.0034 -0.1381 0.9904
vn -0.0383 -0.0864 0.9955
vn -0.7080 -0.0648 0.7032
vn -0.7512 0.0515 0.6580
vn -0.6650 0.2565 -0.7014
vn 0.0258 0.2903 -0.9566
vn -0.0178 0.2535 -0.9672
vn -0.6724 0.2740 -0.6876
vn 0.7076 0.2178 -0.6722
vn 0.6615 0.1493 -0.7349
vn 0.7019 0.2612 -0.6626
vn 0.9897 0.1420 0.0170
vn -0.9951 0.0985 -0.0124
vn -0.9815 0.1883 -0.0354
vn 0.7006 -0.0411 0.7124
vn -0.0022 -0.1871 0.9823
vn 0.6371 0.4443 -0.6298
vn 0.9138 0.4055 0.0222
vn 0.6387 0.3253 0.6973
vn -0.7036 0.1059 -0.7027
vn 0.0153 0.2492 -0.9683
vn -0.6856 -0.2100 0.6970
vn -0.0204 0.2538 0.9670
vn -0.6878 0.2341 0.6871
vn -0.9954 -0.0953 0.0070
vn -0.6900 0.3370 -0.6406
vn -0.0123 0.4132 -0.9106
vn -0.9650 0.2616 0.0177
vn 0.0065 0.8883 -0.4592
vn -0.3270 0.8845 -0.3326
vn 0.0059 1.0000 0.0000
vn 0.0029 0.8883 0.4593
vn 0.3351 0.8818 0.3319
vn 0.4629 0.8864 -0.0001
vn 0.3366 0.8815 -0.3310
vn -0.4556 0.8902 0.0001
vn -0.3286 0.8843 0.3317
vn -0.1200 0.8421 0.5258
vn 0.1707 0.8724 0.4581
vn 0.1205 0.9598 0.2537
vn -0.1736 0.9359 0.3065
vn -0.5028 0.8643 -0.0149
vn -0.2310 0.9722 -0.0379
vn -0.2653 0.8017 -0.5357
vn -0.4503 0.6922 -0.5641
vn 0.0532 0.9935 -0.1007
vn -0.0625 0.7824 -0.6196
vn -0.3111 0.4083 -0.8582
vn -0.2345 0.4718 -0.8499
vn -0.2112 0.3310 -0.9197
vn -0.2646 0.3205 -0.9095
vn -0.1378 0.4483 -0.8832
vn -0.1541 0.3409 -0.9274
vn -0.4507 0.8249 0.3411
vn -0.4011 0.7371 0.5438
vn -0.3714 0.6701 0.6426
vn -0.0881 0.7733 0.6279
vn 0.2006 0.8060 0.5569
vn 0.2426 0.9673 0.0734
vn 0.1444 0.9669 -0.2101
vn -0.0721 0.9873 -0.1419
vn 0.0103 0.9892 0.1463
vn -0.2432 0.8295 0.5027
vn -0.3219 0.9174 0.2341
vn -0.7360 0.6005 0.3125
vn -0.7128 0.4927 0.4992
vn -0.4120 0.9101 -0.0433
vn -0.8265 0.5504 0.1179
vn -0.9135 0.1273 0.3865
vn -0.9321 0.1881 0.3095
vn -0.9558 0.0319 0.2924
vn -0.9383 0.0266 0.3447
vn -0.9644 0.1527 0.2161
vn -0.9710 0.0374 0.2363
vn 0.1014 0.9022 0.4191
vn 0.3164 0.8810 0.3517
vn 0.4284 0.8475 0.3133
vn 0.3581 0.9331 0.0325
vn 0.2562 0.9341 -0.2488
vn 0.1848 0.8582 -0.4789
vn -0.1143 0.8573 -0.5020
vn -0.1371 0.9461 -0.2934
vn 0.1601 0.9536 -0.2550
vn 0.3831 0.9112 0.1515
vn 0.1073 0.9901 0.0901
vn 0.0080 0.8161 0.5778
vn 0.1862 0.7259 0.6622
vn -0.1832 0.9810 0.0643
vn -0.2075 0.7748 0.5972
vn -0.0049 0.4245 0.9054
vn -0.0816 0.4799 0.8735
vn -0.1101 0.3363 0.9353
vn -0.0553 0.3316 0.9418
vn -0.1809 0.4460 0.8766
vn -0.1675 0.3402 0.9253
vn 0.4447 0.8724 -0.2031
vn 0.4676 0.7831 -0.4099
vn 0.4760 0.7150 -0.5120
vn 0.1924 0.7881 -0.5847
vn -0.1062 0.7898 -0.6042
vn -0.5457 0.8326 -0.0948
vn -0.5405 0.8161 0.2048
vn -0.3365 0.9172 0.2132
vn -0.3268 0.9412 -0.0854
vn 0.0588 0.9363 -0.3464
vn 0.0189 0.9979 -0.0624
vn 0.5235 0.8518 -0.0171
vn 0.5961 0.7758 -0.2068
vn 0.0211 0.9733 0.2284
vn 0.5656 0.8017 0.1932
vn 0.8742 0.4824 -0.0549
vn 0.8463 0.5319 0.0273
vn 0.9192 0.3915 0.0424
vn 0.9208 0.3898 -0.0129
vn 0.8608 0.4936 0.1239
vn 0.9144 0.3920 0.1006
vn -0.2970 0.8771 -0.3775
vn -0.4992 0.7757 -0.3862
vn -0.5972 0.7014 -0.3890
vn -0.6472 0.7562 -0.0964
vn -0.6386 0.7424 0.2024
vn -0.2310 0.7870 -0.5721
vn -0.4557 0.8076 -0.3742
vn -0.3200 0.9201 -0.2261
vn -0.0852 0.9066 -0.4134
vn 0.3012 0.8715 -0.3871
vn 0.0659 0.9711 -0.2292
vn 0.1870 0.9800 -0.0685
vn 0.4069 0.8851 -0.2259
vn -0.1668 0.9851 -0.0416
vn -0.0392 0.9935 0.1066
vn 0.4842 0.8709 -0.0839
vn 0.2767 0.9591 0.0600
vn 0.3355 0.9308 0.1454
vn 0.5204 0.8539 -0.0070
vn 0.0685 0.9714 0.2273
vn 0.1263 0.9485 0.2905
vn 0.1516 0.8067 -0.5711
vn 0.0165 0.6961 -0.7178
vn -0.0510 0.6190 -0.7837
vn -0.2994 0.7048 -0.6431
vn -0.5245 0.7279 -0.4417
vn 0.5206 0.7870 -0.3312
vn 0.2851 0.8076 -0.5162
vn 0.1641 0.9201 -0.3557
vn 0.3910 0.9066 -0.1590
vn 0.4354 0.8715 0.2257
vn 0.2374 0.9711 0.0231
vn 0.1014 0.9800 0.1714
vn 0.2962 0.8851 0.3590
vn 0.0105 0.9851 -0.1715
vn -0.1119 0.9935 -0.0191
vn 0.1706 0.8709 0.4609
vn -0.0087 0.9591 0.2830
vn -0.0820 0.9308 0.3563
vn 0.1015 0.8539 0.5104
vn -0.2110 0.9714 0.1087
vn -0.2627 0.9485 0.1770
vn 0.5892 0.8067 0.0452
vn 0.7088 0.6961 -0.1143
vn 0.7614 0.6190 -0.1927
vn 0.5779 0.7048 -0.4113
vn 0.3389 0.7279 -0.5961
vn 0.3785 0.7870 0.4873
vn 0.5406 0.8076 0.2355
vn 0.3695 0.9201 0.1301
vn 0.1948 0.9066 0.3744
vn -0.1840 0.8715 0.4546
vn -0.0008 0.9711 0.2385
vn -0.1611 0.9800 0.1170
vn -0.3298 0.8851 0.3284
vn 0.1718 0.9851 -0.0055
vn 0.0086 0.9935 -0.1132
vn -0.4429 0.8709 0.2130
vn -0.2826 0.9591 0.0178
vn -0.3624 0.9308 -0.0483
vn -0.4987 0.8539 0.1488
vn -0.1279 0.9714 -0.2000
vn -0.2008 0.9485 -0.2449
vn 0.0101 0.8067 0.5908
vn 0.1801 0.6961 0.6950
vn 0.2630 0.6190 0.7400
vn 0.4636 0.7048 0.5369
vn 0.6251 0.7279 0.2817
vn -0.5210 0.7870 0.3306
vn -0.2857 0.8076 0.5159
vn -0.1645 0.9201 0.3555
vn -0.3912 0.9066 0.1585
vn -0.4351 0.8715 -0.2263
vn -0.2374 0.9711 -0.0234
vn -0.1012 0.9800 -0.1715
vn -0.2957 0.8851 -0.3594
vn -0.0107 0.9851 0.1715
vn 0.1119 0.9935 0.0193
vn -0.1701 0.8709 -0.4611
vn 0.0090 0.9591 -0.2830
vn 0.0824 0.9308 -0.3562
vn -0.1009 0.8539 -0.5105
vn 0.2112 0.9714 -0.1084
vn 0.2629 0.9485 -0.1767
vn -0.5891 0.8067 -0.0459
vn -0.7089 0.6961 0.1135
vn -0.7616 0.6190 0.1918
vn -0.5784 0.7048 0.4106
vn -0.3396 0.7279 0.5957
usemtl PalmTree_Trunk
s 1
f 10/1/1 32/2/2 14/3/3 1/4/4
f 32/5/2 11/6/5 2/7/6 14/8/3
f 11/6/5 33/9/7 15/10/8 2/7/6
f 30/11/9 9/12/10 3/13/11 16/14/12
f 9/12/10 31/15/13 13/16/14 3/13/11
f 31/15/13 22/17/15 5/18/16 10/1/1
f 33/9/7 12/19/17 4/20/18 15/10/8
f 12/19/17 30/11/9 16/14/12 4/20/18
f 32/5/2 23/21/19 6/22/20 11/6/5
f 5/18/16 23/23/19 32/2/2 10/1/1
f 5/18/16 22/17/15 37/24/21 19/25/22
f 5/18/16 19/25/22 39/26/23 23/23/19
f 30/11/9 25/27/24 7/28/25 9/12/10
f 6/22/20 24/29/26 33/9/7 11/6/5
f 6/22/20 23/21/19 39/30/23 20/31/27
f 6/22/20 20/31/27 41/32/28 24/29/26
f 33/9/7 24/29/26 8/33/29 12/19/17
f 7/28/25 22/17/15 31/15/13 9/12/10
f 7/28/25 25/27/24 34/34/30 18/35/31
f 7/28/25 18/35/31 37/24/21 22/17/15
f 8/33/29 25/27/24 30/11/9 12/19/17
f 8/33/29 24/29/26 41/32/28 21/36/32
f 8/33/29 21/36/32 34/34/30 25/27/24
f 40/37/33 29/38/34 17/39/35
f 36/40/36 27/41/37 17/42/35
f 38/43/38 28/44/39 17/45/35
f 29/38/34 35/46/40 17/47/35
f 28/44/39 40/37/33 17/48/35
f 26/49/41 36/40/36 17/50/35
f 27/51/37 38/43/38 17/52/35
f 35/46/40 26/49/41 17/53/35
f 20/31/27 39/30/23 27/41/37 36/40/36
f 41/32/28 20/31/27 36/40/36 26/49/41
f 18/35/31 34/34/30 29/38/34 40/37/33
f 21/36/32 41/32/28 26/49/41 35/46/40
f 37/24/21 18/35/31 40/37/33 28/44/39
f 34/34/30 21/36/32 35/46/40 29/38/34
f 19/25/22 37/24/21 28/44/39 38/43/38
f 39/26/23 19/25/22 38/43/38 27/51/37
f 31/15/13 10/1/1 1/4/4 13/16/14
usemtl PalmTree_Leaves
f 61/54/42 62/55/43 57/56/44 58/57/45
f 55/58/46 59/59/47 50/60/48 52/61/49
f 59/59/47 56/62/50 49/63/51 50/60/48
f 53/64/52 51/65/53 47/66/54 44/67/55
f 51/65/53 53/64/52 52/61/49 50/60/48
f 48/68/56 51/65/53 50/60/48 49/63/51
f 51/65/53 48/68/56 45/69/57 47/66/54
f 59/59/47 55/58/46 54/70/58 58/57/45
f 56/62/50 59/59/47 58/57/45 57/56/44
f 60/71/59 61/54/42 58/57/45 54/70/58
f 42/72/60 46/73/61 61/54/42 60/71/59
f 46/73/61 43/74/62 62/55/43 61/54/42
f 82/75/63 83/76/64 78/77/65 79/78/66
f 76/79/67 80/80/68 71/81/69 73/82/70
f 80/80/68 77/83/71 70/84/72 71/81/69
f 74/85/73 72/86/74 68/87/75 65/88/76
f 72/86/74 74/85/73 73/82/70 71/81/69
f 69/89/77 72/86/74 71/81/69 70/84/72
f 72/86/74 69/89/77 66/90/78 68/87/75
f 80/80/68 76/79/67 75/91/79 79/78/66
f 77/83/71 80/80/68 79/78/66 78/77/65
f 81/92/80 82/75/63 79/78/66 75/91/79
f 63/93/81 67/94/82 82/75/63 81/92/80
f 67/94/82 64/95/83 83/76/64 82/75/63
f 103/96/84 104/97/85 99/98/86 100/99/87
f 97/100/88 101/101/89 92/102/90 94/103/91
f 101/101/89 98/104/92 91/105/93 92/102/90
f 95/106/94 93/107/95 89/108/96 86/109/97
f 93/107/95 95/106/94 94/103/91 92/102/90
f 90/110/98 93/107/95 92/102/90 91/105/93
f 93/107/95 90/110/98 87/111/99 89/108/96
f 101/101/89 97/100/88 96/112/100 100/99/87
f 98/104/92 101/101/89 100/99/87 99/98/86
f 102/113/101 103/96/84 100/99/87 96/112/100
f 84/114/102 88/115/103 103/96/84 102/113/101
f 88/115/103 85/116/104 104/97/85 103/96/84
f 124/117/105 125/118/106 120/119/107 121/120/108
f 118/121/109 122/122/110 113/123/111 115/124/112
f 122/122/110 119/125/113 112/126/114 113/123/111
f 116/127/115 114/128/116 110/129/117 107/130/118
f 114/128/116 116/127/115 115/124/112 113/123/111
f 111/131/119 114/128/116 113/123/111 112/126/114
f 114/128/116 111/131/119 108/132/120 110/129/117
f 122/122/110 118/121/109 117/133/121 121/120/108
f 119/125/113 122/122/110 121/120/108 120/119/107
f 123/134/122 124/117/105 121/120/108 117/133/121
f 105/135/123 109/136/124 124/117/105 123/134/122
f 109/136/124 106/137/125 125/118/106 124/117/105
f 145/138/126 146/139/127 141/140/128 142/141/129
f 139/142/130 143/143/131 134/144/132 136/145/133
f 143/143/131 140/146/134 133/147/135 134/144/132
f 137/148/136 135/149/137 131/150/138 128/151/139
f 135/149/137 137/148/136 136/145/133 134/144/132
f 132/152/140 135/149/137 134/144/132 133/147/135
f 135/149/137 132/152/140 129/153/141 131/150/138
f 143/143/131 139/142/130 138/154/142 142/141/129
f 140/146/134 143/143/131 142/141/129 141/140/128
f 144/155/143 145/138/126 142/141/129 138/154/142
f 126/156/144 130/157/145 145/138/126 144/155/143
f 130/157/145 127/158/146 146/139/127 145/138/126
f 166/159/147 167/160/148 162/161/149 163/162/150
f 160/163/151 164/164/152 155/165/153 157/166/154
f 164/164/152 161/167/155 154/168/156 155/165/153
f 158/169/157 156/170/158 152/171/159 149/172/160
f 156/170/158 158/169/157 157/166/154 155/165/153
f 153/173/161 156/170/158 155/165/153 154/168/156
f 156/170/158 153/173/161 150/174/162 152/171/159
f 164/164/152 160/163/151 159/175/163 163/162/150
f 161/167/155 164/164/152 163/162/150 162/161/149
f 165/176/164 166/159/147 163/162/150 159/175/163
f 147/177/165 151/178/166 166/159/147 165/176/164
f 151/178/166 148/179/167 167/160/148 166/159/147
f 187/180/168 188/181/169 183/182/170 184/183/171
f 181/184/172 185/185/173 176/186/174 178/187/175
f 185/185/173 182/188/176 175/189/177 176/186/174
f 179/190/178 177/191/179 173/192/180 170/193/181
f 177/191/179 179/190/178 178/187/175 176/186/174
f 174/194/182 177/191/179 176/186/174 175/189/177
f 177/191/179 174/194/182 171/195/183 173/192/180
f 185/185/173 181/184/172 180/196/184 184/183/171
f 182/188/176 185/185/173 184/183/171 183/182/170
f 186/197/185 187/180/168 184/183/171 180/196/184
f 168/198/186 172/199/187 187/180/168 186/197/185
f 172/199/187 169/200/188 188/181/169 187/180/168
f 208/201/189 209/202/190 204/203/191 205/204/192
f 202/205/193 206/206/194 197/207/195 199/208/196
f 206/206/194 203/209/197 196/210/198 197/207/195
f 200/211/199 198/212/200 194/213/201 191/214/202
f 198/212/200 200/211/199 199/208/196 197/207/195
f 195/215/203 198/212/200 197/207/195 196/210/198
f 198/212/200 195/215/203 192/216/204 194/213/201
f 206/206/194 202/205/193 201/217/205 205/204/192
f 203/209/197 206/206/194 205/204/192 204/203/191
f 207/218/206 208/201/189 205/204/192 201/217/205
f 189/219/207 193/220/208 208/201/189 207/218/206
f 193/220/208 190/221/209 209/202/190 208/201/189
