# Blender v2.79 (sub 0) OBJ File: 'Petals_3.blend'
# www.blender.org
mtllib Petals_3.mtl
o Petals_3_Plane.014
v -0.001300 -0.004306 0.001029
v -0.235722 0.106063 0.041238
v -0.117217 0.175838 -0.150177
v 0.118419 0.173517 -0.150556
v 0.235635 0.100694 0.040883
v 0.117130 0.030919 0.232298
v -0.118549 0.033603 0.232475
vt 0.195509 0.801542
vt 0.092461 0.623057
vt 0.298557 0.623057
vt -0.010587 0.801542
vt 0.092461 0.980026
vt 0.298557 0.980026
vt 0.401605 0.801542
vn 0.0108 0.9372 0.3486
vn 0.2273 0.7077 0.6689
vn 0.4480 0.8375 0.3129
vn -0.2105 0.7124 0.6695
vn -0.4283 0.8473 0.3140
vn -0.2080 0.9772 -0.0423
vn 0.2301 0.9722 -0.0427
usemtl Flowers
s 1
f 1/1/1 3/2/2 2/3/3
f 1/1/1 4/4/4 3/2/2
f 1/1/1 5/5/5 4/4/4
f 1/1/1 6/6/6 5/5/5
f 1/1/1 7/7/7 6/6/6
f 1/1/1 2/3/3 7/7/7
