# Blender v2.79 (sub 0) OBJ File: 'Petals_1.blend'
# www.blender.org
mtllib Petals_1.mtl
o Petals_1_Plane.027
v -0.092158 0.196213 0.059376
v -0.235107 0.253567 -0.028089
v -0.107440 0.348695 -0.029446
v -0.005654 0.347362 0.092938
v -0.031537 0.250342 0.216757
v -0.159204 0.155213 0.218114
v -0.260989 0.156825 0.095691
v -0.059376 0.196213 -0.092158
v 0.028089 0.253567 -0.235107
v 0.029446 0.348695 -0.107440
v -0.092939 0.347362 -0.005654
v -0.216757 0.250342 -0.031537
v -0.218114 0.155213 -0.159204
v -0.095691 0.156825 -0.260989
v 0.059376 0.196213 0.092158
v -0.028089 0.253567 0.235106
v -0.029446 0.348695 0.107440
v 0.092939 0.347362 0.005654
v 0.216757 0.250342 0.031537
v 0.218114 0.155213 0.159204
v 0.095691 0.156825 0.260989
v 0.092158 0.196213 -0.059376
v 0.235106 0.253567 0.028089
v 0.107440 0.348695 0.029446
v 0.005654 0.347362 -0.092939
v 0.031537 0.250342 -0.216757
v 0.159204 0.155213 -0.218114
v 0.260989 0.156825 -0.095691
v 0.155306 0.067283 0.002168
v 0.169962 0.303168 -0.000797
v 0.207088 0.202873 -0.184378
v 0.288348 0.006613 -0.183924
v 0.332076 -0.089610 0.000689
v 0.294951 0.010685 0.184270
v 0.213894 0.207074 0.183527
v 0.074953 0.026014 -0.149523
v 0.141167 -0.165624 -0.270996
v 0.294022 -0.060997 -0.166938
v 0.277044 0.148338 -0.135126
v 0.106477 0.253046 -0.207209
v -0.046378 0.148419 -0.311266
v -0.029033 -0.060917 -0.343160
v -0.086762 0.026014 -0.142994
v -0.154419 -0.165624 -0.263670
v 0.014995 -0.060997 -0.337776
v 0.032906 0.148338 -0.306479
v -0.118849 0.253046 -0.200369
v -0.288262 0.148419 -0.126263
v -0.306047 -0.060917 -0.157914
v 0.086908 0.028147 0.157125
v 0.140854 -0.135801 0.262475
v -0.006370 -0.046292 0.320361
v -0.020672 0.132797 0.293028
v 0.112488 0.222376 0.207211
v 0.259711 0.132866 0.149324
v 0.273894 -0.046222 0.176956
v -0.086644 0.028080 0.156829
v -0.147492 -0.136740 0.259081
v -0.275487 -0.046755 0.164690
v -0.259864 0.133286 0.137899
v -0.115609 0.223342 0.205384
v 0.012386 0.133356 0.299775
v -0.003556 -0.046685 0.326623
v -0.167243 0.026014 0.002168
v -0.305559 -0.165625 -0.000797
v -0.283411 -0.060997 -0.184378
v -0.247355 0.148338 -0.183924
v -0.232964 0.253046 0.000689
v -0.255112 0.148419 0.184270
v -0.291409 -0.060917 0.183527
v 0.155306 0.067283 0.002168
v 0.169962 0.303168 -0.000797
v 0.207088 0.202873 -0.184378
v 0.288348 0.006613 -0.183924
v 0.332076 -0.089610 0.000689
v 0.294951 0.010685 0.184270
v 0.213894 0.207074 0.183527
v 0.092158 -0.125514 0.059376
v 0.235106 -0.182868 -0.028089
v 0.107440 -0.277997 -0.029446
v 0.005654 -0.276664 0.092938
v 0.031537 -0.179644 0.216757
v 0.159204 -0.084515 0.218114
v 0.260989 -0.086127 0.095691
v 0.059376 -0.125514 -0.092158
v -0.028089 -0.182868 -0.235107
v -0.029446 -0.277997 -0.107440
v 0.092938 -0.276664 -0.005654
v 0.216757 -0.179644 -0.031537
v 0.218114 -0.084515 -0.159204
v 0.095691 -0.086127 -0.260989
v -0.059376 -0.125514 0.092158
v 0.028089 -0.182868 0.235106
v 0.029446 -0.277997 0.107440
v -0.092939 -0.276664 0.005654
v -0.216757 -0.179643 0.031537
v -0.218114 -0.084515 0.159204
v -0.095691 -0.086127 0.260989
v -0.092158 -0.125514 -0.059376
v -0.235106 -0.182868 0.028089
v -0.107440 -0.277997 0.029446
v -0.005654 -0.276664 -0.092939
v -0.031537 -0.179643 -0.216757
v -0.159204 -0.084514 -0.218114
v -0.260989 -0.086127 -0.095691
vt 0.613803 0.814141
vt 0.430488 0.719954
vt 0.603713 0.608292
vt 0.440578 0.925803
vt 0.623893 1.019990
vt 0.797118 0.908327
vt 0.787029 0.702479
vt 0.613803 0.814141
vt 0.430488 0.719954
vt 0.603713 0.608292
vt 0.440578 0.925803
vt 0.623893 1.019990
vt 0.797118 0.908327
vt 0.787029 0.702479
vt 0.613803 0.814141
vt 0.430488 0.719954
vt 0.603713 0.608292
vt 0.440578 0.925803
vt 0.623893 1.019990
vt 0.797118 0.908327
vt 0.787029 0.702479
vt 0.613803 0.814141
vt 0.430488 0.719954
vt 0.603713 0.608292
vt 0.440578 0.925803
vt 0.623893 1.019990
vt 0.797118 0.908327
vt 0.787029 0.702479
vt 0.613803 0.814141
vt 0.430488 0.719954
vt 0.603713 0.608292
vt 0.440578 0.925803
vt 0.623893 1.019990
vt 0.797118 0.908327
vt 0.787029 0.702479
vt 0.613803 0.814141
vt 0.430488 0.719954
vt 0.603713 0.608292
vt 0.440578 0.925803
vt 0.623893 1.019990
vt 0.797118 0.908327
vt 0.787029 0.702479
vt 0.613803 0.814141
vt 0.430488 0.719954
vt 0.603713 0.608292
vt 0.440578 0.925803
vt 0.623893 1.019990
vt 0.797118 0.908327
vt 0.787029 0.702479
vt 0.613803 0.814141
vt 0.430488 0.719954
vt 0.603713 0.608292
vt 0.440578 0.925803
vt 0.623893 1.019990
vt 0.797118 0.908327
vt 0.787029 0.702479
vt 0.613803 0.814141
vt 0.430488 0.719954
vt 0.603713 0.608292
vt 0.440578 0.925803
vt 0.623893 1.019990
vt 0.797118 0.908327
vt 0.787029 0.702479
vt 0.613803 0.814141
vt 0.430488 0.719954
vt 0.603713 0.608292
vt 0.440578 0.925803
vt 0.623893 1.019990
vt 0.797118 0.908327
vt 0.787029 0.702479
vt 0.613803 0.814141
vt 0.430488 0.719954
vt 0.603713 0.608292
vt 0.440578 0.925803
vt 0.623893 1.019990
vt 0.797118 0.908327
vt 0.787029 0.702479
vt 0.613803 0.814141
vt 0.430488 0.719954
vt 0.603713 0.608292
vt 0.440578 0.925803
vt 0.623893 1.019990
vt 0.797118 0.908327
vt 0.787029 0.702479
vt 0.613803 0.814141
vt 0.430488 0.719954
vt 0.603713 0.608292
vt 0.440578 0.925803
vt 0.623893 1.019990
vt 0.797118 0.908327
vt 0.787029 0.702479
vt 0.613803 0.814141
vt 0.430488 0.719954
vt 0.603713 0.608292
vt 0.440578 0.925803
vt 0.623893 1.019990
vt 0.797118 0.908327
vt 0.787029 0.702479
vt 0.613803 0.814141
vt 0.430488 0.719954
vt 0.603713 0.608292
vt 0.440578 0.925803
vt 0.623893 1.019990
vt 0.797118 0.908327
vt 0.787029 0.702479
vn -0.5305 0.7181 0.4504
vn -0.5483 0.3792 0.7454
vn -0.1966 0.6412 0.7418
vn -0.8283 0.3833 0.4087
vn -0.7572 0.6497 0.0682
vn -0.4055 0.9118 0.0642
vn -0.1254 0.9074 0.4011
vn -0.4504 0.7181 -0.5305
vn -0.7454 0.3792 -0.5483
vn -0.7418 0.6412 -0.1966
vn -0.4087 0.3833 -0.8283
vn -0.0682 0.6497 -0.7572
vn -0.0642 0.9118 -0.4055
vn -0.4011 0.9074 -0.1254
vn 0.4504 0.7181 0.5305
vn 0.7454 0.3792 0.5483
vn 0.7418 0.6412 0.1966
vn 0.4087 0.3833 0.8283
vn 0.0682 0.6497 0.7572
vn 0.0642 0.9118 0.4055
vn 0.4011 0.9074 0.1254
vn 0.5305 0.7181 -0.4504
vn 0.5483 0.3792 -0.7454
vn 0.1966 0.6412 -0.7418
vn 0.8283 0.3833 -0.4087
vn 0.7572 0.6497 -0.0682
vn 0.4055 0.9118 -0.0642
vn 0.1254 0.9074 -0.4011
vn 0.9241 0.3815 -0.0213
vn 0.9212 0.1449 0.3611
vn 0.9979 -0.0622 -0.0178
vn 0.7540 0.5496 0.3598
vn 0.6636 0.7478 -0.0203
vn 0.7401 0.5410 -0.3994
vn 0.9073 0.1360 -0.3979
vn 0.4718 0.1708 -0.8650
vn 0.0730 0.3692 -0.9265
vn 0.3884 0.5853 -0.7117
vn 0.1084 -0.0623 -0.9922
vn 0.4595 -0.2781 -0.8435
vn 0.7752 -0.0623 -0.6287
vn 0.7394 0.3694 -0.5629
vn -0.4817 0.1708 -0.8596
vn -0.7458 0.3692 -0.5545
vn -0.3962 0.5853 -0.7074
vn -0.7826 -0.0623 -0.6194
vn -0.4700 -0.2781 -0.8377
vn -0.1201 -0.0623 -0.9908
vn -0.0835 0.3694 -0.9255
vn 0.4489 0.1708 0.8771
vn 0.7243 0.3692 0.5823
vn 0.3692 0.5853 0.7219
vn 0.7587 -0.0623 0.6485
vn 0.4381 -0.2781 0.8548
vn 0.0827 -0.0623 0.9946
vn 0.0485 0.3694 0.9280
vn -0.5040 0.1708 0.8466
vn -0.1079 0.3692 0.9231
vn -0.4150 0.5853 0.6966
vn -0.1457 -0.0623 0.9874
vn -0.4909 -0.2781 0.8256
vn -0.7983 -0.0623 0.5990
vn -0.7601 0.3694 0.5346
vn -0.9851 0.1708 -0.0213
vn -0.8563 0.3692 0.3611
vn -0.8106 0.5853 -0.0178
vn -0.9309 -0.0623 0.3598
vn -0.9603 -0.2781 -0.0203
vn -0.9146 -0.0623 -0.3994
vn -0.8398 0.3694 -0.3979
vn 0.5305 -0.7181 0.4504
vn 0.5483 -0.3792 0.7454
vn 0.1966 -0.6412 0.7418
vn 0.8283 -0.3833 0.4087
vn 0.7572 -0.6497 0.0682
vn 0.4055 -0.9118 0.0642
vn 0.1254 -0.9074 0.4011
vn 0.4504 -0.7181 -0.5305
vn 0.7454 -0.3792 -0.5483
vn 0.7418 -0.6412 -0.1966
vn 0.4087 -0.3833 -0.8283
vn 0.0682 -0.6497 -0.7572
vn 0.0642 -0.9118 -0.4055
vn 0.4011 -0.9074 -0.1254
vn -0.4504 -0.7181 0.5305
vn -0.7454 -0.3792 0.5483
vn -0.7418 -0.6412 0.1966
vn -0.4087 -0.3833 0.8283
vn -0.0682 -0.6497 0.7572
vn -0.0642 -0.9118 0.4055
vn -0.4011 -0.9074 0.1254
vn -0.5305 -0.7181 -0.4504
vn -0.5483 -0.3792 -0.7454
vn -0.1966 -0.6412 -0.7418
vn -0.8283 -0.3833 -0.4087
vn -0.7572 -0.6497 -0.0682
vn -0.4055 -0.9118 -0.0642
vn -0.1254 -0.9074 -0.4011
usemtl Flowers
s 1
f 1/1/1 3/2/2 2/3/3
f 1/1/1 4/4/4 3/2/2
f 1/1/1 5/5/5 4/4/4
f 1/1/1 6/6/6 5/5/5
f 1/1/1 7/7/7 6/6/6
f 1/1/1 2/3/3 7/7/7
f 8/8/8 10/9/9 9/10/10
f 8/8/8 11/11/11 10/9/9
f 8/8/8 12/12/12 11/11/11
f 8/8/8 13/13/13 12/12/12
f 8/8/8 14/14/14 13/13/13
f 8/8/8 9/10/10 14/14/14
f 15/15/15 17/16/16 16/17/17
f 15/15/15 18/18/18 17/16/16
f 15/15/15 19/19/19 18/18/18
f 15/15/15 20/20/20 19/19/19
f 15/15/15 21/21/21 20/20/20
f 15/15/15 16/17/17 21/21/21
f 22/22/22 24/23/23 23/24/24
f 22/22/22 25/25/25 24/23/23
f 22/22/22 26/26/26 25/25/25
f 22/22/22 27/27/27 26/26/26
f 22/22/22 28/28/28 27/27/27
f 22/22/22 23/24/24 28/28/28
f 29/29/29 31/30/30 30/31/31
f 29/29/29 32/32/32 31/30/30
f 29/29/29 33/33/33 32/32/32
f 29/29/29 34/34/34 33/33/33
f 29/29/29 35/35/35 34/34/34
f 29/29/29 30/31/31 35/35/35
f 36/36/36 38/37/37 37/38/38
f 36/36/36 39/39/39 38/37/37
f 36/36/36 40/40/40 39/39/39
f 36/36/36 41/41/41 40/40/40
f 36/36/36 42/42/42 41/41/41
f 36/36/36 37/38/38 42/42/42
f 43/43/43 45/44/44 44/45/45
f 43/43/43 46/46/46 45/44/44
f 43/43/43 47/47/47 46/46/46
f 43/43/43 48/48/48 47/47/47
f 43/43/43 49/49/49 48/48/48
f 43/43/43 44/45/45 49/49/49
f 50/50/50 52/51/51 51/52/52
f 50/50/50 53/53/53 52/51/51
f 50/50/50 54/54/54 53/53/53
f 50/50/50 55/55/55 54/54/54
f 50/50/50 56/56/56 55/55/55
f 50/50/50 51/52/52 56/56/56
f 57/57/57 59/58/58 58/59/59
f 57/57/57 60/60/60 59/58/58
f 57/57/57 61/61/61 60/60/60
f 57/57/57 62/62/62 61/61/61
f 57/57/57 63/63/63 62/62/62
f 57/57/57 58/59/59 63/63/63
f 64/64/64 66/65/65 65/66/66
f 64/64/64 67/67/67 66/65/65
f 64/64/64 68/68/68 67/67/67
f 64/64/64 69/69/69 68/68/68
f 64/64/64 70/70/70 69/69/69
f 64/64/64 65/66/66 70/70/70
f 71/71/29 73/72/30 72/73/31
f 71/71/29 74/74/32 73/72/30
f 71/71/29 75/75/33 74/74/32
f 71/71/29 76/76/34 75/75/33
f 71/71/29 77/77/35 76/76/34
f 71/71/29 72/73/31 77/77/35
f 78/78/71 80/79/72 79/80/73
f 78/78/71 81/81/74 80/79/72
f 78/78/71 82/82/75 81/81/74
f 78/78/71 83/83/76 82/82/75
f 78/78/71 84/84/77 83/83/76
f 78/78/71 79/80/73 84/84/77
f 85/85/78 87/86/79 86/87/80
f 85/85/78 88/88/81 87/86/79
f 85/85/78 89/89/82 88/88/81
f 85/85/78 90/90/83 89/89/82
f 85/85/78 91/91/84 90/90/83
f 85/85/78 86/87/80 91/91/84
f 92/92/85 94/93/86 93/94/87
f 92/92/85 95/95/88 94/93/86
f 92/92/85 96/96/89 95/95/88
f 92/92/85 97/97/90 96/96/89
f 92/92/85 98/98/91 97/97/90
f 92/92/85 93/94/87 98/98/91
f 99/99/92 101/100/93 100/101/94
f 99/99/92 102/102/95 101/100/93
f 99/99/92 103/103/96 102/102/95
f 99/99/92 104/104/97 103/103/96
f 99/99/92 105/105/98 104/104/97
f 99/99/92 100/101/94 105/105/98
