# Blender v2.79 (sub 0) OBJ File: 'Petals_2.blend'
# www.blender.org
mtllib Petals_2.mtl
o Petals_2_Plane.013
v -0.001831 -0.004884 0.003023
v -0.330728 0.125502 0.014033
v -0.164464 0.153303 -0.270414
v 0.166136 0.150679 -0.270018
v 0.330592 0.119563 0.015649
v 0.164327 0.091762 0.300096
v -0.166333 0.094731 0.299288
v -0.003396 0.009583 0.002336
v -0.213009 0.195451 -0.179685
v 0.068040 0.197602 -0.263511
v 0.281127 0.170428 -0.063933
v 0.212696 0.140298 0.220033
v -0.068353 0.138147 0.303858
v -0.281206 0.165724 0.103999
vt 0.207289 0.415565
vt 0.104241 0.237081
vt 0.310337 0.237081
vt 0.001193 0.415565
vt 0.104241 0.594050
vt 0.310337 0.594050
vt 0.413385 0.415565
vt 0.207289 0.415565
vt 0.104241 0.237081
vt 0.310337 0.237081
vt 0.001193 0.415565
vt 0.104241 0.594050
vt 0.310337 0.594050
vt 0.413385 0.415565
vn 0.0094 0.9949 0.1009
vn 0.1866 0.8944 0.4064
vn 0.3696 0.9242 0.0965
vn -0.1727 0.8978 0.4052
vn -0.3522 0.9311 0.0953
vn -0.1719 0.9610 -0.2165
vn 0.1903 0.9576 -0.2163
vn 0.0238 0.9936 0.1107
vn -0.0891 0.8243 0.5591
vn 0.3685 0.8285 0.4217
vn -0.4366 0.8687 0.2338
vn -0.3248 0.9177 -0.2286
vn 0.1333 0.9217 -0.3643
vn 0.4786 0.8771 -0.0393
usemtl Flowers
s 1
f 1/1/1 3/2/2 2/3/3
f 1/1/1 4/4/4 3/2/2
f 1/1/1 5/5/5 4/4/4
f 1/1/1 6/6/6 5/5/5
f 1/1/1 7/7/7 6/6/6
f 1/1/1 2/3/3 7/7/7
f 8/8/8 10/9/9 9/10/10
f 8/8/8 11/11/11 10/9/9
f 8/8/8 12/12/12 11/11/11
f 8/8/8 13/13/13 12/12/12
f 8/8/8 14/14/14 13/13/13
f 8/8/8 9/10/10 14/14/14
