{
    "asset" : {
        "generator" : "Khronos glTF Blender I/O v1.7.33",
        "version" : "2.0"
    },
    "scene" : 0,
    "scenes" : [
        {
            "name" : "Scene",
            "nodes" : [
                0
            ]
        }
    ],
    "nodes" : [
        {
            "mesh" : 0,
            "name" : "BirchTree_3"
        }
    ],
    "materials" : [
        {
            "doubleSided" : true,
            "name" : "BirchTree_Bark",
            "pbrMetallicRoughness" : {}
        },
        {
            "doubleSided" : true,
            "name" : "BirchTree_Leaves",
            "pbrMetallicRoughness" : {}
        }
    ],
    "meshes" : [
        {
            "name" : "Cube.000",
            "primitives" : [
                {
                    "attributes" : {
                        "POSITION" : 0,
                        "NORMAL" : 1,
                        "TEXCOORD_0" : 2,
                        "TEXCOORD_1" : 3
                    },
                    "indices" : 4,
                    "material" : 0
                },
                {
                    "attributes" : {
                        "POSITION" : 5,
                        "NORMAL" : 6,
                        "TEXCOORD_0" : 7,
                        "TEXCOORD_1" : 8
                    },
                    "indices" : 9,
                    "material" : 1
                }
            ]
        }
    ],
    "accessors" : [
        {
            "bufferView" : 0,
            "componentType" : 5126,
            "count" : 1646,
            "max" : [
                1.4055445194244385,
                5.545559406280518,
                0.8506550192832947
            ],
            "min" : [
                -1.446382761001587,
                -0.008469140157103539,
                -0.5328736305236816
            ],
            "type" : "VEC3"
        },
        {
            "bufferView" : 1,
            "componentType" : 5126,
            "count" : 1646,
            "type" : "VEC3"
        },
        {
            "bufferView" : 2,
            "componentType" : 5126,
            "count" : 1646,
            "type" : "VEC2"
        },
        {
            "bufferView" : 3,
            "componentType" : 5126,
            "count" : 1646,
            "type" : "VEC2"
        },
        {
            "bufferView" : 4,
            "componentType" : 5123,
            "count" : 8040,
            "type" : "SCALAR"
        },
        {
            "bufferView" : 5,
            "componentType" : 5126,
            "count" : 8276,
            "max" : [
                1.7693895101547241,
                5.745725154876709,
                1.3416640758514404
            ],
            "min" : [
                -1.66342294216156,
                2.2327804565429688,
                -0.9253931045532227
            ],
            "type" : "VEC3"
        },
        {
            "bufferView" : 6,
            "componentType" : 5126,
            "count" : 8276,
            "type" : "VEC3"
        },
        {
            "bufferView" : 7,
            "componentType" : 5126,
            "count" : 8276,
            "type" : "VEC2"
        },
        {
            "bufferView" : 8,
            "componentType" : 5126,
            "count" : 8276,
            "type" : "VEC2"
        },
        {
            "bufferView" : 9,
            "componentType" : 5123,
            "count" : 12414,
            "type" : "SCALAR"
        }
    ],
    "bufferViews" : [
        {
            "buffer" : 0,
            "byteLength" : 19752,
            "byteOffset" : 0
        },
        {
            "buffer" : 0,
            "byteLength" : 19752,
            "byteOffset" : 19752
        },
        {
            "buffer" : 0,
            "byteLength" : 13168,
            "byteOffset" : 39504
        },
        {
            "buffer" : 0,
            "byteLength" : 13168,
            "byteOffset" : 52672
        },
        {
            "buffer" : 0,
            "byteLength" : 16080,
            "byteOffset" : 65840
        },
        {
            "buffer" : 0,
            "byteLength" : 99312,
            "byteOffset" : 81920
        },
        {
            "buffer" : 0,
            "byteLength" : 99312,
            "byteOffset" : 181232
        },
        {
            "buffer" : 0,
            "byteLength" : 66208,
            "byteOffset" : 280544
        },
        {
            "buffer" : 0,
            "byteLength" : 66208,
            "byteOffset" : 346752
        },
        {
            "buffer" : 0,
            "byteLength" : 24828,
            "byteOffset" : 412960
        }
    ],
    "buffers" : [
        {
            "byteLength" : 437788,
            "uri" : "data:application/octet-stream;base64,"
        }
    ]
}
