{
    "asset" : {
        "generator" : "Khronos glTF Blender I/O v1.7.33",
        "version" : "2.0"
    },
    "scene" : 0,
    "scenes" : [
        {
            "name" : "Scene",
            "nodes" : [
                0
            ]
        }
    ],
    "nodes" : [
        {
            "mesh" : 0,
            "name" : "BirchTree_5"
        }
    ],
    "materials" : [
        {
            "doubleSided" : true,
            "name" : "BirchTree_Bark",
            "pbrMetallicRoughness" : {}
        },
        {
            "doubleSided" : true,
            "name" : "BirchTree_Leaves",
            "pbrMetallicRoughness" : {}
        }
    ],
    "meshes" : [
        {
            "name" : "Cube.009",
            "primitives" : [
                {
                    "attributes" : {
                        "POSITION" : 0,
                        "NORMAL" : 1,
                        "TEXCOORD_0" : 2
                    },
                    "indices" : 3,
                    "material" : 0
                },
                {
                    "attributes" : {
                        "POSITION" : 4,
                        "NORMAL" : 5,
                        "TEXCOORD_0" : 6
                    },
                    "indices" : 7,
                    "material" : 1
                }
            ]
        }
    ],
    "accessors" : [
        {
            "bufferView" : 0,
            "componentType" : 5126,
            "count" : 1872,
            "max" : [
                1.748803734779358,
                5.186513900756836,
                1.0935114622116089
            ],
            "min" : [
                -1.3307640552520752,
                -0.014205191284418106,
                -1.4230836629867554
            ],
            "type" : "VEC3"
        },
        {
            "bufferView" : 1,
            "componentType" : 5126,
            "count" : 1872,
            "type" : "VEC3"
        },
        {
            "bufferView" : 2,
            "componentType" : 5126,
            "count" : 1872,
            "type" : "VEC2"
        },
        {
            "bufferView" : 3,
            "componentType" : 5123,
            "count" : 9168,
            "type" : "SCALAR"
        },
        {
            "bufferView" : 4,
            "componentType" : 5126,
            "count" : 2928,
            "max" : [
                1.8894633054733276,
                5.508197784423828,
                1.7623989582061768
            ],
            "min" : [
                -1.6922731399536133,
                2.5803983211517334,
                -1.752392053604126
            ],
            "type" : "VEC3"
        },
        {
            "bufferView" : 5,
            "componentType" : 5126,
            "count" : 2928,
            "type" : "VEC3"
        },
        {
            "bufferView" : 6,
            "componentType" : 5126,
            "count" : 2928,
            "type" : "VEC2"
        },
        {
            "bufferView" : 7,
            "componentType" : 5123,
            "count" : 4392,
            "type" : "SCALAR"
        }
    ],
    "bufferViews" : [
        {
            "buffer" : 0,
            "byteLength" : 22464,
            "byteOffset" : 0
        },
        {
            "buffer" : 0,
            "byteLength" : 22464,
            "byteOffset" : 22464
        },
        {
            "buffer" : 0,
            "byteLength" : 14976,
            "byteOffset" : 44928
        },
        {
            "buffer" : 0,
            "byteLength" : 18336,
            "byteOffset" : 59904
        },
        {
            "buffer" : 0,
            "byteLength" : 35136,
            "byteOffset" : 78240
        },
        {
            "buffer" : 0,
            "byteLength" : 35136,
            "byteOffset" : 113376
        },
        {
            "buffer" : 0,
            "byteLength" : 23424,
            "byteOffset" : 148512
        },
        {
            "buffer" : 0,
            "byteLength" : 8784,
            "byteOffset" : 171936
        }
    ],
    "buffers" : [
        {
            "byteLength" : 180720,
            "uri" : "data:application/octet-stream;base64,"
        }
    ]
}
