{
    "asset" : {
        "generator" : "Khronos glTF Blender I/O v1.7.33",
        "version" : "2.0"
    },
    "scene" : 0,
    "scenes" : [
        {
            "name" : "Scene",
            "nodes" : [
                0
            ]
        }
    ],
    "nodes" : [
        {
            "mesh" : 0,
            "name" : "BirchTree_1"
        }
    ],
    "materials" : [
        {
            "doubleSided" : true,
            "name" : "BirchTree_Bark",
            "pbrMetallicRoughness" : {}
        },
        {
            "doubleSided" : true,
            "name" : "BirchTree_Leaves",
            "pbrMetallicRoughness" : {}
        }
    ],
    "meshes" : [
        {
            "name" : "Cube.004",
            "primitives" : [
                {
                    "attributes" : {
                        "POSITION" : 0,
                        "NORMAL" : 1,
                        "TEXCOORD_0" : 2
                    },
                    "indices" : 3,
                    "material" : 0
                },
                {
                    "attributes" : {
                        "POSITION" : 4,
                        "NORMAL" : 5,
                        "TEXCOORD_0" : 6
                    },
                    "indices" : 7,
                    "material" : 1
                }
            ]
        }
    ],
    "accessors" : [
        {
            "bufferView" : 0,
            "componentType" : 5126,
            "count" : 1634,
            "max" : [
                0.9670372009277344,
                4.8608198165893555,
                0.6318668127059937
            ],
            "min" : [
                -0.8300637602806091,
                -0.01774914562702179,
                -0.5289766192436218
            ],
            "type" : "VEC3"
        },
        {
            "bufferView" : 1,
            "componentType" : 5126,
            "count" : 1634,
            "type" : "VEC3"
        },
        {
            "bufferView" : 2,
            "componentType" : 5126,
            "count" : 1634,
            "type" : "VEC2"
        },
        {
            "bufferView" : 3,
            "componentType" : 5123,
            "count" : 8064,
            "type" : "SCALAR"
        },
        {
            "bufferView" : 4,
            "componentType" : 5126,
            "count" : 3820,
            "max" : [
                1.3658959865570068,
                5.43514347076416,
                1.068799376487732
            ],
            "min" : [
                -1.341935396194458,
                2.142258405685425,
                -0.8737319111824036
            ],
            "type" : "VEC3"
        },
        {
            "bufferView" : 5,
            "componentType" : 5126,
            "count" : 3820,
            "type" : "VEC3"
        },
        {
            "bufferView" : 6,
            "componentType" : 5126,
            "count" : 3820,
            "type" : "VEC2"
        },
        {
            "bufferView" : 7,
            "componentType" : 5123,
            "count" : 5730,
            "type" : "SCALAR"
        }
    ],
    "bufferViews" : [
        {
            "buffer" : 0,
            "byteLength" : 19608,
            "byteOffset" : 0
        },
        {
            "buffer" : 0,
            "byteLength" : 19608,
            "byteOffset" : 19608
        },
        {
            "buffer" : 0,
            "byteLength" : 13072,
            "byteOffset" : 39216
        },
        {
            "buffer" : 0,
            "byteLength" : 16128,
            "byteOffset" : 52288
        },
        {
            "buffer" : 0,
            "byteLength" : 45840,
            "byteOffset" : 68416
        },
        {
            "buffer" : 0,
            "byteLength" : 45840,
            "byteOffset" : 114256
        },
        {
            "buffer" : 0,
            "byteLength" : 30560,
            "byteOffset" : 160096
        },
        {
            "buffer" : 0,
            "byteLength" : 11460,
            "byteOffset" : 190656
        }
    ],
    "buffers" : [
        {
            "byteLength" : 202116,
            "uri" : "data:application/octet-stream;base64,"
        }
    ]
}
