{
    "asset" : {
        "generator" : "Khronos glTF Blender I/O v1.7.33",
        "version" : "2.0"
    },
    "scene" : 0,
    "scenes" : [
        {
            "name" : "Scene",
            "nodes" : [
                0
            ]
        }
    ],
    "nodes" : [
        {
            "mesh" : 0,
            "name" : "Bush_Large_Flowers",
            "rotation" : [
                -0.8006435632705688,
                -0.26975393295288086,
                0.040793512016534805,
                -0.5334215760231018
            ]
        }
    ],
    "materials" : [
        {
            "doubleSided" : true,
            "name" : "Bush_Leaves",
            "pbrMetallicRoughness" : {}
        },
        {
            "doubleSided" : true,
            "name" : "Flowers",
            "pbrMetallicRoughness" : {}
        }
    ],
    "meshes" : [
        {
            "name" : "Plane.029",
            "primitives" : [
                {
                    "attributes" : {
                        "POSITION" : 0,
                        "NORMAL" : 1,
                        "TEXCOORD_0" : 2
                    },
                    "indices" : 3,
                    "material" : 0
                },
                {
                    "attributes" : {
                        "POSITION" : 4,
                        "NORMAL" : 5,
                        "TEXCOORD_0" : 6
                    },
                    "indices" : 7,
                    "material" : 1
                }
            ]
        }
    ],
    "accessors" : [
        {
            "bufferView" : 0,
            "componentType" : 5126,
            "count" : 552,
            "max" : [
                1.149157166481018,
                0.5573542714118958,
                0.4012354910373688
            ],
            "min" : [
                -0.8172093629837036,
                -0.7824836373329163,
                -1.0758378505706787
            ],
            "type" : "VEC3"
        },
        {
            "bufferView" : 1,
            "componentType" : 5126,
            "count" : 552,
            "type" : "VEC3"
        },
        {
            "bufferView" : 2,
            "componentType" : 5126,
            "count" : 552,
            "type" : "VEC2"
        },
        {
            "bufferView" : 3,
            "componentType" : 5123,
            "count" : 828,
            "type" : "SCALAR"
        },
        {
            "bufferView" : 4,
            "componentType" : 5126,
            "count" : 147,
            "max" : [
                1.1831327676773071,
                0.4660194218158722,
                0.07130126655101776
            ],
            "min" : [
                -0.6124211549758911,
                -0.8222407698631287,
                -1.1121408939361572
            ],
            "type" : "VEC3"
        },
        {
            "bufferView" : 5,
            "componentType" : 5126,
            "count" : 147,
            "type" : "VEC3"
        },
        {
            "bufferView" : 6,
            "componentType" : 5126,
            "count" : 147,
            "type" : "VEC2"
        },
        {
            "bufferView" : 7,
            "componentType" : 5123,
            "count" : 378,
            "type" : "SCALAR"
        }
    ],
    "bufferViews" : [
        {
            "buffer" : 0,
            "byteLength" : 6624,
            "byteOffset" : 0
        },
        {
            "buffer" : 0,
            "byteLength" : 6624,
            "byteOffset" : 6624
        },
        {
            "buffer" : 0,
            "byteLength" : 4416,
            "byteOffset" : 13248
        },
        {
            "buffer" : 0,
            "byteLength" : 1656,
            "byteOffset" : 17664
        },
        {
            "buffer" : 0,
            "byteLength" : 1764,
            "byteOffset" : 19320
        },
        {
            "buffer" : 0,
            "byteLength" : 1764,
            "byteOffset" : 21084
        },
        {
            "buffer" : 0,
            "byteLength" : 1176,
            "byteOffset" : 22848
        },
        {
            "buffer" : 0,
            "byteLength" : 756,
            "byteOffset" : 24024
        }
    ],
    "buffers" : [
        {
            "byteLength" : 24780,
            "uri" : "data:application/octet-stream;base64,"
        }
    ]
}
