{
    "asset" : {
        "generator" : "Khronos glTF Blender I/O v1.7.33",
        "version" : "2.0"
    },
    "scene" : 0,
    "scenes" : [
        {
            "name" : "Scene",
            "nodes" : [
                0
            ]
        }
    ],
    "nodes" : [
        {
            "mesh" : 0,
            "name" : "Bush",
            "rotation" : [
                0.7904141545295715,
                0.20954930782318115,
                -0.402734637260437,
                0.4112655520439148
            ]
        }
    ],
    "materials" : [
        {
            "doubleSided" : true,
            "name" : "Bush_Leaves",
            "pbrMetallicRoughness" : {}
        }
    ],
    "meshes" : [
        {
            "name" : "Plane.012",
            "primitives" : [
                {
                    "attributes" : {
                        "POSITION" : 0,
                        "NORMAL" : 1,
                        "TEXCOORD_0" : 2
                    },
                    "indices" : 3,
                    "material" : 0
                }
            ]
        }
    ],
    "accessors" : [
        {
            "bufferView" : 0,
            "componentType" : 5126,
            "count" : 800,
            "max" : [
                0.5290597081184387,
                0.47277382016181946,
                0.36149728298187256
            ],
            "min" : [
                -0.5728190541267395,
                -0.6429753303527832,
                -0.652008593082428
            ],
            "type" : "VEC3"
        },
        {
            "bufferView" : 1,
            "componentType" : 5126,
            "count" : 800,
            "type" : "VEC3"
        },
        {
            "bufferView" : 2,
            "componentType" : 5126,
            "count" : 800,
            "type" : "VEC2"
        },
        {
            "bufferView" : 3,
            "componentType" : 5123,
            "count" : 1200,
            "type" : "SCALAR"
        }
    ],
    "bufferViews" : [
        {
            "buffer" : 0,
            "byteLength" : 9600,
            "byteOffset" : 0
        },
        {
            "buffer" : 0,
            "byteLength" : 9600,
            "byteOffset" : 9600
        },
        {
            "buffer" : 0,
            "byteLength" : 6400,
            "byteOffset" : 19200
        },
        {
            "buffer" : 0,
            "byteLength" : 2400,
            "byteOffset" : 25600
        }
    ],
    "buffers" : [
        {
            "byteLength" : 28000,
            "uri" : "data:application/octet-stream;base64,"
        }
    ]
}
