{
    "asset" : {
        "generator" : "Khronos glTF Blender I/O v1.7.33",
        "version" : "2.0"
    },
    "scene" : 0,
    "scenes" : [
        {
            "name" : "Scene",
            "nodes" : [
                0
            ]
        }
    ],
    "nodes" : [
        {
            "mesh" : 0,
            "name" : "DeadTree_7"
        }
    ],
    "materials" : [
        {
            "doubleSided" : true,
            "name" : "MapleTree_Bark",
            "pbrMetallicRoughness" : {}
        }
    ],
    "meshes" : [
        {
            "name" : "Cube.009",
            "primitives" : [
                {
                    "attributes" : {
                        "POSITION" : 0,
                        "NORMAL" : 1,
                        "TEXCOORD_0" : 2
                    },
                    "indices" : 3,
                    "material" : 0
                }
            ]
        }
    ],
    "accessors" : [
        {
            "bufferView" : 0,
            "componentType" : 5126,
            "count" : 2122,
            "max" : [
                1.9898109436035156,
                6.314578056335449,
                2.1632957458496094
            ],
            "min" : [
                -4.147556304931641,
                0.0006933771073818207,
                -2.870760679244995
            ],
            "type" : "VEC3"
        },
        {
            "bufferView" : 1,
            "componentType" : 5126,
            "count" : 2122,
            "type" : "VEC3"
        },
        {
            "bufferView" : 2,
            "componentType" : 5126,
            "count" : 2122,
            "type" : "VEC2"
        },
        {
            "bufferView" : 3,
            "componentType" : 5123,
            "count" : 10512,
            "type" : "SCALAR"
        }
    ],
    "bufferViews" : [
        {
            "buffer" : 0,
            "byteLength" : 25464,
            "byteOffset" : 0
        },
        {
            "buffer" : 0,
            "byteLength" : 25464,
            "byteOffset" : 25464
        },
        {
            "buffer" : 0,
            "byteLength" : 16976,
            "byteOffset" : 50928
        },
        {
            "buffer" : 0,
            "byteLength" : 21024,
            "byteOffset" : 67904
        }
    ],
    "buffers" : [
        {
            "byteLength" : 88928,
            "uri" : "data:application/octet-stream;base64,"
        }
    ]
}
