{
    "asset" : {
        "generator" : "Khronos glTF Blender I/O v1.7.33",
        "version" : "2.0"
    },
    "scene" : 0,
    "scenes" : [
        {
            "name" : "Scene",
            "nodes" : [
                0
            ]
        }
    ],
    "nodes" : [
        {
            "mesh" : 0,
            "name" : "DeadTree_3"
        }
    ],
    "materials" : [
        {
            "doubleSided" : true,
            "name" : "NormalTree_Bark",
            "pbrMetallicRoughness" : {}
        }
    ],
    "meshes" : [
        {
            "name" : "Cylinder.009",
            "primitives" : [
                {
                    "attributes" : {
                        "POSITION" : 0,
                        "NORMAL" : 1,
                        "TEXCOORD_0" : 2
                    },
                    "indices" : 3,
                    "material" : 0
                }
            ]
        }
    ],
    "accessors" : [
        {
            "bufferView" : 0,
            "componentType" : 5126,
            "count" : 2986,
            "max" : [
                2.8662118911743164,
                4.9478936195373535,
                0.7827639579772949
            ],
            "min" : [
                -1.3526040315628052,
                -0.010010122321546078,
                -0.918813169002533
            ],
            "type" : "VEC3"
        },
        {
            "bufferView" : 1,
            "componentType" : 5126,
            "count" : 2986,
            "type" : "VEC3"
        },
        {
            "bufferView" : 2,
            "componentType" : 5126,
            "count" : 2986,
            "type" : "VEC2"
        },
        {
            "bufferView" : 3,
            "componentType" : 5123,
            "count" : 14784,
            "type" : "SCALAR"
        }
    ],
    "bufferViews" : [
        {
            "buffer" : 0,
            "byteLength" : 35832,
            "byteOffset" : 0
        },
        {
            "buffer" : 0,
            "byteLength" : 35832,
            "byteOffset" : 35832
        },
        {
            "buffer" : 0,
            "byteLength" : 23888,
            "byteOffset" : 71664
        },
        {
            "buffer" : 0,
            "byteLength" : 29568,
            "byteOffset" : 95552
        }
    ],
    "buffers" : [
        {
            "byteLength" : 125120,
            "uri" : "data:application/octet-stream;base64,"
        }
    ]
}
