{
    "asset" : {
        "generator" : "Khronos glTF Blender I/O v1.7.33",
        "version" : "2.0"
    },
    "scene" : 0,
    "scenes" : [
        {
            "name" : "Scene",
            "nodes" : [
                0
            ]
        }
    ],
    "nodes" : [
        {
            "mesh" : 0,
            "name" : "DeadTree_6"
        }
    ],
    "materials" : [
        {
            "doubleSided" : true,
            "name" : "MapleTree_Bark",
            "pbrMetallicRoughness" : {}
        }
    ],
    "meshes" : [
        {
            "name" : "Cube.005",
            "primitives" : [
                {
                    "attributes" : {
                        "POSITION" : 0,
                        "NORMAL" : 1,
                        "TEXCOORD_0" : 2
                    },
                    "indices" : 3,
                    "material" : 0
                }
            ]
        }
    ],
    "accessors" : [
        {
            "bufferView" : 0,
            "componentType" : 5126,
            "count" : 1815,
            "max" : [
                3.7677536010742188,
                6.415181636810303,
                1.930820345878601
            ],
            "min" : [
                -1.6392756700515747,
                0.0006941246683709323,
                -1.368160605430603
            ],
            "type" : "VEC3"
        },
        {
            "bufferView" : 1,
            "componentType" : 5126,
            "count" : 1815,
            "type" : "VEC3"
        },
        {
            "bufferView" : 2,
            "componentType" : 5126,
            "count" : 1815,
            "type" : "VEC2"
        },
        {
            "bufferView" : 3,
            "componentType" : 5123,
            "count" : 8952,
            "type" : "SCALAR"
        }
    ],
    "bufferViews" : [
        {
            "buffer" : 0,
            "byteLength" : 21780,
            "byteOffset" : 0
        },
        {
            "buffer" : 0,
            "byteLength" : 21780,
            "byteOffset" : 21780
        },
        {
            "buffer" : 0,
            "byteLength" : 14520,
            "byteOffset" : 43560
        },
        {
            "buffer" : 0,
            "byteLength" : 17904,
            "byteOffset" : 58080
        }
    ],
    "buffers" : [
        {
            "byteLength" : 75984,
            "uri" : "data:application/octet-stream;base64,"
        }
    ]
}
