{
    "accessors" : [
        {
            "bufferView" : 0,
            "componentType" : 5121,
            "count" : 486,
            "max" : [
                180
            ],
            "min" : [
                0
            ],
            "type" : "SCALAR"
        },
        {
            "bufferView" : 1,
            "componentType" : 5126,
            "count" : 181,
            "max" : [
                0.1313621550798416,
                0.4849697947502136,
                0.12470661103725433
            ],
            "min" : [
                -0.1363728791475296,
                -0.0044397455640137196,
                -0.07968909293413162
            ],
            "type" : "VEC3"
        },
        {
            "bufferView" : 2,
            "componentType" : 5126,
            "count" : 181,
            "max" : [
                0.9805902242660522,
                0.9939268231391907,
                0.9945982098579407
            ],
            "min" : [
                -0.9959715604782104,
                -0.9852290153503418,
                -0.9921567440032959
            ],
            "type" : "VEC3"
        },
        {
            "bufferView" : 3,
            "componentType" : 5126,
            "count" : 181,
            "max" : [
                1.0,
                0.9989185929298401,
                0.9989978671073914,
                1.0
            ],
            "min" : [
                -0.9829924702644348,
                -0.9623867273330688,
                -0.7762086987495422,
                -1.0
            ],
            "type" : "VEC4"
        },
        {
            "bufferView" : 4,
            "componentType" : 5126,
            "count" : 181,
            "max" : [
                0.7971182465553284,
                0.9878119276836514
            ],
            "min" : [
                0.41455501317977905,
                -0.019989728927612305
            ],
            "type" : "VEC2"
        }
    ],
    "asset" : {
        "generator" : "Khronos Blender glTF 2.0 exporter",
        "version" : "2.0"
    },
    "bufferViews" : [
        {
            "buffer" : 0,
            "byteLength" : 486,
            "byteOffset" : 0,
            "target" : 34963
        },
        {
            "buffer" : 0,
            "byteLength" : 2172,
            "byteOffset" : 488,
            "target" : 34962
        },
        {
            "buffer" : 0,
            "byteLength" : 2172,
            "byteOffset" : 2660,
            "target" : 34962
        },
        {
            "buffer" : 0,
            "byteLength" : 2896,
            "byteOffset" : 4832,
            "target" : 34962
        },
        {
            "buffer" : 0,
            "byteLength" : 1448,
            "byteOffset" : 7728,
            "target" : 34962
        }
    ],
    "buffers" : [
        {
            "byteLength" : 9176,
            "uri" : "Flower_1.bin"
        }
    ],
    "meshes" : [
        {
            "name" : "Plane.046",
            "primitives" : [
                {
                    "attributes" : {
                        "NORMAL" : 2,
                        "POSITION" : 1,
                        "TANGENT" : 3,
                        "TEXCOORD_0" : 4
                    },
                    "indices" : 0
                }
            ]
        }
    ],
    "nodes" : [
        {
            "mesh" : 0,
            "name" : "Flower_1"
        }
    ],
    "scene" : 0,
    "scenes" : [
        {
            "name" : "Scene",
            "nodes" : [
                0
            ]
        }
    ]
}
