{
    "asset" : {
        "generator" : "Khronos glTF Blender I/O v1.7.33",
        "version" : "2.0"
    },
    "scene" : 0,
    "scenes" : [
        {
            "name" : "Scene",
            "nodes" : [
                0
            ]
        }
    ],
    "nodes" : [
        {
            "mesh" : 0,
            "name" : "MapleTree_5"
        }
    ],
    "materials" : [
        {
            "doubleSided" : true,
            "name" : "MapleTree_Bark",
            "pbrMetallicRoughness" : {}
        },
        {
            "doubleSided" : true,
            "name" : "MapleTree_Leaves",
            "pbrMetallicRoughness" : {}
        }
    ],
    "meshes" : [
        {
            "name" : "Cube.010",
            "primitives" : [
                {
                    "attributes" : {
                        "POSITION" : 0,
                        "NORMAL" : 1,
                        "TEXCOORD_0" : 2
                    },
                    "indices" : 3,
                    "material" : 0
                },
                {
                    "attributes" : {
                        "POSITION" : 4,
                        "NORMAL" : 5,
                        "TEXCOORD_0" : 6
                    },
                    "indices" : 7,
                    "material" : 1
                }
            ]
        }
    ],
    "accessors" : [
        {
            "bufferView" : 0,
            "componentType" : 5126,
            "count" : 1952,
            "max" : [
                2.441612482070923,
                7.126369953155518,
                1.9308204650878906
            ],
            "min" : [
                -3.0191519260406494,
                0.0006941246683709323,
                -1.3140323162078857
            ],
            "type" : "VEC3"
        },
        {
            "bufferView" : 1,
            "componentType" : 5126,
            "count" : 1952,
            "type" : "VEC3"
        },
        {
            "bufferView" : 2,
            "componentType" : 5126,
            "count" : 1952,
            "type" : "VEC2"
        },
        {
            "bufferView" : 3,
            "componentType" : 5123,
            "count" : 9624,
            "type" : "SCALAR"
        },
        {
            "bufferView" : 4,
            "componentType" : 5126,
            "count" : 2592,
            "max" : [
                3.4032061100006104,
                7.280647277832031,
                2.6457133293151855
            ],
            "min" : [
                -3.6091811656951904,
                2.538853883743286,
                -2.430192708969116
            ],
            "type" : "VEC3"
        },
        {
            "bufferView" : 5,
            "componentType" : 5126,
            "count" : 2592,
            "type" : "VEC3"
        },
        {
            "bufferView" : 6,
            "componentType" : 5126,
            "count" : 2592,
            "type" : "VEC2"
        },
        {
            "bufferView" : 7,
            "componentType" : 5123,
            "count" : 3888,
            "type" : "SCALAR"
        }
    ],
    "bufferViews" : [
        {
            "buffer" : 0,
            "byteLength" : 23424,
            "byteOffset" : 0
        },
        {
            "buffer" : 0,
            "byteLength" : 23424,
            "byteOffset" : 23424
        },
        {
            "buffer" : 0,
            "byteLength" : 15616,
            "byteOffset" : 46848
        },
        {
            "buffer" : 0,
            "byteLength" : 19248,
            "byteOffset" : 62464
        },
        {
            "buffer" : 0,
            "byteLength" : 31104,
            "byteOffset" : 81712
        },
        {
            "buffer" : 0,
            "byteLength" : 31104,
            "byteOffset" : 112816
        },
        {
            "buffer" : 0,
            "byteLength" : 20736,
            "byteOffset" : 143920
        },
        {
            "buffer" : 0,
            "byteLength" : 7776,
            "byteOffset" : 164656
        }
    ],
    "buffers" : [
        {
            "byteLength" : 172432,
            "uri" : "data:application/octet-stream;base64,"
        }
    ]
}
