{
    "asset" : {
        "generator" : "Khronos glTF Blender I/O v1.7.33",
        "version" : "2.0"
    },
    "scene" : 0,
    "scenes" : [
        {
            "name" : "Scene",
            "nodes" : [
                0
            ]
        }
    ],
    "nodes" : [
        {
            "mesh" : 0,
            "name" : "MapleTree_3"
        }
    ],
    "materials" : [
        {
            "doubleSided" : true,
            "name" : "MapleTree_Bark",
            "pbrMetallicRoughness" : {}
        },
        {
            "doubleSided" : true,
            "name" : "MapleTree_Leaves",
            "pbrMetallicRoughness" : {}
        }
    ],
    "meshes" : [
        {
            "name" : "Cube.008",
            "primitives" : [
                {
                    "attributes" : {
                        "POSITION" : 0,
                        "NORMAL" : 1,
                        "TEXCOORD_0" : 2
                    },
                    "indices" : 3,
                    "material" : 0
                },
                {
                    "attributes" : {
                        "POSITION" : 4,
                        "NORMAL" : 5,
                        "TEXCOORD_0" : 6
                    },
                    "indices" : 7,
                    "material" : 1
                }
            ]
        }
    ],
    "accessors" : [
        {
            "bufferView" : 0,
            "componentType" : 5126,
            "count" : 2999,
            "max" : [
                4.147934913635254,
                6.277482986450195,
                1.93081796169281
            ],
            "min" : [
                -4.017767429351807,
                0.0006945766508579254,
                -2.8707633018493652
            ],
            "type" : "VEC3"
        },
        {
            "bufferView" : 1,
            "componentType" : 5126,
            "count" : 2999,
            "type" : "VEC3"
        },
        {
            "bufferView" : 2,
            "componentType" : 5126,
            "count" : 2999,
            "type" : "VEC2"
        },
        {
            "bufferView" : 3,
            "componentType" : 5123,
            "count" : 14832,
            "type" : "SCALAR"
        },
        {
            "bufferView" : 4,
            "componentType" : 5126,
            "count" : 3468,
            "max" : [
                4.569456577301025,
                6.987350940704346,
                2.6775949001312256
            ],
            "min" : [
                -4.410184383392334,
                2.417171001434326,
                -3.935764789581299
            ],
            "type" : "VEC3"
        },
        {
            "bufferView" : 5,
            "componentType" : 5126,
            "count" : 3468,
            "type" : "VEC3"
        },
        {
            "bufferView" : 6,
            "componentType" : 5126,
            "count" : 3468,
            "type" : "VEC2"
        },
        {
            "bufferView" : 7,
            "componentType" : 5123,
            "count" : 5202,
            "type" : "SCALAR"
        }
    ],
    "bufferViews" : [
        {
            "buffer" : 0,
            "byteLength" : 35988,
            "byteOffset" : 0
        },
        {
            "buffer" : 0,
            "byteLength" : 35988,
            "byteOffset" : 35988
        },
        {
            "buffer" : 0,
            "byteLength" : 23992,
            "byteOffset" : 71976
        },
        {
            "buffer" : 0,
            "byteLength" : 29664,
            "byteOffset" : 95968
        },
        {
            "buffer" : 0,
            "byteLength" : 41616,
            "byteOffset" : 125632
        },
        {
            "buffer" : 0,
            "byteLength" : 41616,
            "byteOffset" : 167248
        },
        {
            "buffer" : 0,
            "byteLength" : 27744,
            "byteOffset" : 208864
        },
        {
            "buffer" : 0,
            "byteLength" : 10404,
            "byteOffset" : 236608
        }
    ],
    "buffers" : [
        {
            "byteLength" : 247012,
            "uri" : "data:application/octet-stream;base64,"
        }
    ]
}
