{
    "asset" : {
        "generator" : "Khronos glTF Blender I/O v1.7.33",
        "version" : "2.0"
    },
    "scene" : 0,
    "scenes" : [
        {
            "name" : "Scene",
            "nodes" : [
                0
            ]
        }
    ],
    "nodes" : [
        {
            "mesh" : 0,
            "name" : "NormalTree_1"
        }
    ],
    "materials" : [
        {
            "doubleSided" : true,
            "name" : "NormalTree_Bark",
            "pbrMetallicRoughness" : {}
        },
        {
            "doubleSided" : true,
            "name" : "NormalTree_Leaves",
            "pbrMetallicRoughness" : {}
        }
    ],
    "meshes" : [
        {
            "name" : "Cylinder.001",
            "primitives" : [
                {
                    "attributes" : {
                        "POSITION" : 0,
                        "NORMAL" : 1,
                        "TEXCOORD_0" : 2
                    },
                    "indices" : 3,
                    "material" : 0
                },
                {
                    "attributes" : {
                        "POSITION" : 4,
                        "NORMAL" : 5,
                        "TEXCOORD_0" : 6
                    },
                    "indices" : 7,
                    "material" : 1
                }
            ]
        }
    ],
    "accessors" : [
        {
            "bufferView" : 0,
            "componentType" : 5126,
            "count" : 2905,
            "max" : [
                1.4404239654541016,
                6.185760498046875,
                0.6190109848976135
            ],
            "min" : [
                -1.6520121097564697,
                -0.009869025088846684,
                -0.676365852355957
            ],
            "type" : "VEC3"
        },
        {
            "bufferView" : 1,
            "componentType" : 5126,
            "count" : 2905,
            "type" : "VEC3"
        },
        {
            "bufferView" : 2,
            "componentType" : 5126,
            "count" : 2905,
            "type" : "VEC2"
        },
        {
            "bufferView" : 3,
            "componentType" : 5123,
            "count" : 14376,
            "type" : "SCALAR"
        },
        {
            "bufferView" : 4,
            "componentType" : 5126,
            "count" : 7456,
            "max" : [
                1.9202561378479004,
                6.856752395629883,
                1.2456235885620117
            ],
            "min" : [
                -2.1308679580688477,
                2.9108479022979736,
                -1.498358964920044
            ],
            "type" : "VEC3"
        },
        {
            "bufferView" : 5,
            "componentType" : 5126,
            "count" : 7456,
            "type" : "VEC3"
        },
        {
            "bufferView" : 6,
            "componentType" : 5126,
            "count" : 7456,
            "type" : "VEC2"
        },
        {
            "bufferView" : 7,
            "componentType" : 5123,
            "count" : 11184,
            "type" : "SCALAR"
        }
    ],
    "bufferViews" : [
        {
            "buffer" : 0,
            "byteLength" : 34860,
            "byteOffset" : 0
        },
        {
            "buffer" : 0,
            "byteLength" : 34860,
            "byteOffset" : 34860
        },
        {
            "buffer" : 0,
            "byteLength" : 23240,
            "byteOffset" : 69720
        },
        {
            "buffer" : 0,
            "byteLength" : 28752,
            "byteOffset" : 92960
        },
        {
            "buffer" : 0,
            "byteLength" : 89472,
            "byteOffset" : 121712
        },
        {
            "buffer" : 0,
            "byteLength" : 89472,
            "byteOffset" : 211184
        },
        {
            "buffer" : 0,
            "byteLength" : 59648,
            "byteOffset" : 300656
        },
        {
            "buffer" : 0,
            "byteLength" : 22368,
            "byteOffset" : 360304
        }
    ],
    "buffers" : [
        {
            "byteLength" : 382672,
            "uri" : "data:application/octet-stream;base64,"
        }
    ]
}
