{
    "asset" : {
        "generator" : "Khronos glTF Blender I/O v1.7.33",
        "version" : "2.0"
    },
    "scene" : 0,
    "scenes" : [
        {
            "name" : "Scene",
            "nodes" : [
                0
            ]
        }
    ],
    "nodes" : [
        {
            "mesh" : 0,
            "name" : "NormalTree_2"
        }
    ],
    "materials" : [
        {
            "doubleSided" : true,
            "name" : "NormalTree_Bark",
            "pbrMetallicRoughness" : {}
        },
        {
            "doubleSided" : true,
            "name" : "NormalTree_Leaves",
            "pbrMetallicRoughness" : {}
        }
    ],
    "meshes" : [
        {
            "name" : "Cylinder.004",
            "primitives" : [
                {
                    "attributes" : {
                        "POSITION" : 0,
                        "NORMAL" : 1,
                        "TEXCOORD_0" : 2
                    },
                    "indices" : 3,
                    "material" : 0
                },
                {
                    "attributes" : {
                        "POSITION" : 4,
                        "NORMAL" : 5,
                        "TEXCOORD_0" : 6
                    },
                    "indices" : 7,
                    "material" : 1
                }
            ]
        }
    ],
    "accessors" : [
        {
            "bufferView" : 0,
            "componentType" : 5126,
            "count" : 3246,
            "max" : [
                1.635667324066162,
                6.185760498046875,
                0.6366407871246338
            ],
            "min" : [
                -1.7882426977157593,
                -0.010010119527578354,
                -0.8091591000556946
            ],
            "type" : "VEC3"
        },
        {
            "bufferView" : 1,
            "componentType" : 5126,
            "count" : 3246,
            "type" : "VEC3"
        },
        {
            "bufferView" : 2,
            "componentType" : 5126,
            "count" : 3246,
            "type" : "VEC2"
        },
        {
            "bufferView" : 3,
            "componentType" : 5123,
            "count" : 16032,
            "type" : "SCALAR"
        },
        {
            "bufferView" : 4,
            "componentType" : 5126,
            "count" : 5480,
            "max" : [
                2.1825454235076904,
                6.5453200340271,
                1.4443104267120361
            ],
            "min" : [
                -2.371673107147217,
                1.9914638996124268,
                -1.3416284322738647
            ],
            "type" : "VEC3"
        },
        {
            "bufferView" : 5,
            "componentType" : 5126,
            "count" : 5480,
            "type" : "VEC3"
        },
        {
            "bufferView" : 6,
            "componentType" : 5126,
            "count" : 5480,
            "type" : "VEC2"
        },
        {
            "bufferView" : 7,
            "componentType" : 5123,
            "count" : 8220,
            "type" : "SCALAR"
        }
    ],
    "bufferViews" : [
        {
            "buffer" : 0,
            "byteLength" : 38952,
            "byteOffset" : 0
        },
        {
            "buffer" : 0,
            "byteLength" : 38952,
            "byteOffset" : 38952
        },
        {
            "buffer" : 0,
            "byteLength" : 25968,
            "byteOffset" : 77904
        },
        {
            "buffer" : 0,
            "byteLength" : 32064,
            "byteOffset" : 103872
        },
        {
            "buffer" : 0,
            "byteLength" : 65760,
            "byteOffset" : 135936
        },
        {
            "buffer" : 0,
            "byteLength" : 65760,
            "byteOffset" : 201696
        },
        {
            "buffer" : 0,
            "byteLength" : 43840,
            "byteOffset" : 267456
        },
        {
            "buffer" : 0,
            "byteLength" : 16440,
            "byteOffset" : 311296
        }
    ],
    "buffers" : [
        {
            "byteLength" : 327736,
            "uri" : "data:application/octet-stream;base64,"
        }
    ]
}
