{
    "asset" : {
        "generator" : "Khronos glTF Blender I/O v1.7.33",
        "version" : "2.0"
    },
    "scene" : 0,
    "scenes" : [
        {
            "name" : "Scene",
            "nodes" : [
                0
            ]
        }
    ],
    "nodes" : [
        {
            "mesh" : 0,
            "name" : "PalmTree_4"
        }
    ],
    "materials" : [
        {
            "doubleSided" : true,
            "name" : "PalmTree_Trunk",
            "pbrMetallicRoughness" : {}
        },
        {
            "doubleSided" : true,
            "name" : "PalmTree_Leaves",
            "pbrMetallicRoughness" : {}
        }
    ],
    "meshes" : [
        {
            "name" : "Cube.004",
            "primitives" : [
                {
                    "attributes" : {
                        "POSITION" : 0,
                        "NORMAL" : 1,
                        "TEXCOORD_0" : 2
                    },
                    "indices" : 3,
                    "material" : 0
                },
                {
                    "attributes" : {
                        "POSITION" : 4,
                        "NORMAL" : 5,
                        "TEXCOORD_0" : 6
                    },
                    "indices" : 7,
                    "material" : 1
                }
            ]
        }
    ],
    "accessors" : [
        {
            "bufferView" : 0,
            "componentType" : 5126,
            "count" : 118,
            "max" : [
                1.6367608308792114,
                2.551072597503662,
                0.18552333116531372
            ],
            "min" : [
                -0.2003766894340515,
                0.010455437935888767,
                -0.31834888458251953
            ],
            "type" : "VEC3"
        },
        {
            "bufferView" : 1,
            "componentType" : 5126,
            "count" : 118,
            "type" : "VEC3"
        },
        {
            "bufferView" : 2,
            "componentType" : 5126,
            "count" : 118,
            "type" : "VEC2"
        },
        {
            "bufferView" : 3,
            "componentType" : 5123,
            "count" : 552,
            "type" : "SCALAR"
        },
        {
            "bufferView" : 4,
            "componentType" : 5126,
            "count" : 261,
            "max" : [
                4.041285514831543,
                3.6602578163146973,
                2.422337293624878
            ],
            "min" : [
                -0.7059101462364197,
                1.0058366060256958,
                -2.529989242553711
            ],
            "type" : "VEC3"
        },
        {
            "bufferView" : 5,
            "componentType" : 5126,
            "count" : 261,
            "type" : "VEC3"
        },
        {
            "bufferView" : 6,
            "componentType" : 5126,
            "count" : 261,
            "type" : "VEC2"
        },
        {
            "bufferView" : 7,
            "componentType" : 5123,
            "count" : 864,
            "type" : "SCALAR"
        }
    ],
    "bufferViews" : [
        {
            "buffer" : 0,
            "byteLength" : 1416,
            "byteOffset" : 0
        },
        {
            "buffer" : 0,
            "byteLength" : 1416,
            "byteOffset" : 1416
        },
        {
            "buffer" : 0,
            "byteLength" : 944,
            "byteOffset" : 2832
        },
        {
            "buffer" : 0,
            "byteLength" : 1104,
            "byteOffset" : 3776
        },
        {
            "buffer" : 0,
            "byteLength" : 3132,
            "byteOffset" : 4880
        },
        {
            "buffer" : 0,
            "byteLength" : 3132,
            "byteOffset" : 8012
        },
        {
            "buffer" : 0,
            "byteLength" : 2088,
            "byteOffset" : 11144
        },
        {
            "buffer" : 0,
            "byteLength" : 1728,
            "byteOffset" : 13232
        }
    ],
    "buffers" : [
        {
            "byteLength" : 14960,
            "uri" : "data:application/octet-stream;base64,"
        }
    ]
}
