{
    "asset" : {
        "generator" : "Khronos glTF Blender I/O v1.7.33",
        "version" : "2.0"
    },
    "scene" : 0,
    "scenes" : [
        {
            "name" : "Scene",
            "nodes" : [
                0
            ]
        }
    ],
    "nodes" : [
        {
            "mesh" : 0,
            "name" : "PalmTree_2"
        }
    ],
    "materials" : [
        {
            "doubleSided" : true,
            "name" : "PalmTree_Trunk",
            "pbrMetallicRoughness" : {}
        },
        {
            "doubleSided" : true,
            "name" : "PalmTree_Leaves",
            "pbrMetallicRoughness" : {}
        }
    ],
    "meshes" : [
        {
            "name" : "Cube.007",
            "primitives" : [
                {
                    "attributes" : {
                        "POSITION" : 0,
                        "NORMAL" : 1,
                        "TEXCOORD_0" : 2
                    },
                    "indices" : 3,
                    "material" : 0
                },
                {
                    "attributes" : {
                        "POSITION" : 4,
                        "NORMAL" : 5,
                        "TEXCOORD_0" : 6
                    },
                    "indices" : 7,
                    "material" : 1
                }
            ]
        }
    ],
    "accessors" : [
        {
            "bufferView" : 0,
            "componentType" : 5126,
            "count" : 98,
            "max" : [
                1.581221580505371,
                2.586073875427246,
                0.21921752393245697
            ],
            "min" : [
                -0.23141463100910187,
                -0.04019520804286003,
                -0.35375353693962097
            ],
            "type" : "VEC3"
        },
        {
            "bufferView" : 1,
            "componentType" : 5126,
            "count" : 98,
            "type" : "VEC3"
        },
        {
            "bufferView" : 2,
            "componentType" : 5126,
            "count" : 98,
            "type" : "VEC2"
        },
        {
            "bufferView" : 3,
            "componentType" : 5123,
            "count" : 456,
            "type" : "SCALAR"
        },
        {
            "bufferView" : 4,
            "componentType" : 5126,
            "count" : 198,
            "max" : [
                4.18393611907959,
                5.239776611328125,
                1.9548131227493286
            ],
            "min" : [
                -1.3995224237442017,
                1.1650002002716064,
                -2.8144423961639404
            ],
            "type" : "VEC3"
        },
        {
            "bufferView" : 5,
            "componentType" : 5126,
            "count" : 198,
            "type" : "VEC3"
        },
        {
            "bufferView" : 6,
            "componentType" : 5126,
            "count" : 198,
            "type" : "VEC2"
        },
        {
            "bufferView" : 7,
            "componentType" : 5123,
            "count" : 648,
            "type" : "SCALAR"
        }
    ],
    "bufferViews" : [
        {
            "buffer" : 0,
            "byteLength" : 1176,
            "byteOffset" : 0
        },
        {
            "buffer" : 0,
            "byteLength" : 1176,
            "byteOffset" : 1176
        },
        {
            "buffer" : 0,
            "byteLength" : 784,
            "byteOffset" : 2352
        },
        {
            "buffer" : 0,
            "byteLength" : 912,
            "byteOffset" : 3136
        },
        {
            "buffer" : 0,
            "byteLength" : 2376,
            "byteOffset" : 4048
        },
        {
            "buffer" : 0,
            "byteLength" : 2376,
            "byteOffset" : 6424
        },
        {
            "buffer" : 0,
            "byteLength" : 1584,
            "byteOffset" : 8800
        },
        {
            "buffer" : 0,
            "byteLength" : 1296,
            "byteOffset" : 10384
        }
    ],
    "buffers" : [
        {
            "byteLength" : 11680,
            "uri" : "data:application/octet-stream;base64,"
        }
    ]
}
