{
    "asset" : {
        "generator" : "Khronos glTF Blender I/O v1.7.33",
        "version" : "2.0"
    },
    "scene" : 0,
    "scenes" : [
        {
            "name" : "Scene",
            "nodes" : [
                0
            ]
        }
    ],
    "nodes" : [
        {
            "mesh" : 0,
            "name" : "PalmTree_5"
        }
    ],
    "materials" : [
        {
            "doubleSided" : true,
            "name" : "PalmTree_Trunk",
            "pbrMetallicRoughness" : {}
        },
        {
            "doubleSided" : true,
            "name" : "PalmTree_Leaves",
            "pbrMetallicRoughness" : {}
        }
    ],
    "meshes" : [
        {
            "name" : "Cube.010",
            "primitives" : [
                {
                    "attributes" : {
                        "POSITION" : 0,
                        "NORMAL" : 1,
                        "TEXCOORD_0" : 2
                    },
                    "indices" : 3,
                    "material" : 0
                },
                {
                    "attributes" : {
                        "POSITION" : 4,
                        "NORMAL" : 5,
                        "TEXCOORD_0" : 6
                    },
                    "indices" : 7,
                    "material" : 1
                }
            ]
        }
    ],
    "accessors" : [
        {
            "bufferView" : 0,
            "componentType" : 5126,
            "count" : 53,
            "max" : [
                0.17015644907951355,
                1.1615264415740967,
                0.17082935571670532
            ],
            "min" : [
                -0.190721794962883,
                -0.006913273129612207,
                -0.350021094083786
            ],
            "type" : "VEC3"
        },
        {
            "bufferView" : 1,
            "componentType" : 5126,
            "count" : 53,
            "type" : "VEC3"
        },
        {
            "bufferView" : 2,
            "componentType" : 5126,
            "count" : 53,
            "type" : "VEC2"
        },
        {
            "bufferView" : 3,
            "componentType" : 5123,
            "count" : 216,
            "type" : "SCALAR"
        },
        {
            "bufferView" : 4,
            "componentType" : 5126,
            "count" : 176,
            "max" : [
                1.6459791660308838,
                1.7886996269226074,
                1.9967689514160156
            ],
            "min" : [
                -1.846312403678894,
                0.14712324738502502,
                -1.6256078481674194
            ],
            "type" : "VEC3"
        },
        {
            "bufferView" : 5,
            "componentType" : 5126,
            "count" : 176,
            "type" : "VEC3"
        },
        {
            "bufferView" : 6,
            "componentType" : 5126,
            "count" : 176,
            "type" : "VEC2"
        },
        {
            "bufferView" : 7,
            "componentType" : 5123,
            "count" : 576,
            "type" : "SCALAR"
        }
    ],
    "bufferViews" : [
        {
            "buffer" : 0,
            "byteLength" : 636,
            "byteOffset" : 0
        },
        {
            "buffer" : 0,
            "byteLength" : 636,
            "byteOffset" : 636
        },
        {
            "buffer" : 0,
            "byteLength" : 424,
            "byteOffset" : 1272
        },
        {
            "buffer" : 0,
            "byteLength" : 432,
            "byteOffset" : 1696
        },
        {
            "buffer" : 0,
            "byteLength" : 2112,
            "byteOffset" : 2128
        },
        {
            "buffer" : 0,
            "byteLength" : 2112,
            "byteOffset" : 4240
        },
        {
            "buffer" : 0,
            "byteLength" : 1408,
            "byteOffset" : 6352
        },
        {
            "buffer" : 0,
            "byteLength" : 1152,
            "byteOffset" : 7760
        }
    ],
    "buffers" : [
        {
            "byteLength" : 8912,
            "uri" : "data:application/octet-stream;base64,"
        }
    ]
}
