{
    "asset" : {
        "generator" : "Khronos glTF Blender I/O v1.7.33",
        "version" : "2.0"
    },
    "scene" : 0,
    "scenes" : [
        {
            "name" : "Scene",
            "nodes" : [
                0
            ]
        }
    ],
    "nodes" : [
        {
            "mesh" : 0,
            "name" : "PalmTree_3"
        }
    ],
    "materials" : [
        {
            "doubleSided" : true,
            "name" : "PalmTree_Trunk",
            "pbrMetallicRoughness" : {}
        },
        {
            "doubleSided" : true,
            "name" : "PalmTree_Leaves",
            "pbrMetallicRoughness" : {}
        }
    ],
    "meshes" : [
        {
            "name" : "Cube.006",
            "primitives" : [
                {
                    "attributes" : {
                        "POSITION" : 0,
                        "NORMAL" : 1,
                        "TEXCOORD_0" : 2
                    },
                    "indices" : 3,
                    "material" : 0
                },
                {
                    "attributes" : {
                        "POSITION" : 4,
                        "NORMAL" : 5,
                        "TEXCOORD_0" : 6
                    },
                    "indices" : 7,
                    "material" : 1
                }
            ]
        }
    ],
    "accessors" : [
        {
            "bufferView" : 0,
            "componentType" : 5126,
            "count" : 98,
            "max" : [
                0.18696677684783936,
                2.9023377895355225,
                0.18195201456546783
            ],
            "min" : [
                -0.25744321942329407,
                -0.03743772953748703,
                -0.3180404603481293
            ],
            "type" : "VEC3"
        },
        {
            "bufferView" : 1,
            "componentType" : 5126,
            "count" : 98,
            "type" : "VEC3"
        },
        {
            "bufferView" : 2,
            "componentType" : 5126,
            "count" : 98,
            "type" : "VEC2"
        },
        {
            "bufferView" : 3,
            "componentType" : 5123,
            "count" : 456,
            "type" : "SCALAR"
        },
        {
            "bufferView" : 4,
            "componentType" : 5126,
            "count" : 176,
            "max" : [
                1.9901334047317505,
                4.628427028656006,
                2.2533249855041504
            ],
            "min" : [
                -2.482754707336426,
                2.196486711502075,
                -1.9688334465026855
            ],
            "type" : "VEC3"
        },
        {
            "bufferView" : 5,
            "componentType" : 5126,
            "count" : 176,
            "type" : "VEC3"
        },
        {
            "bufferView" : 6,
            "componentType" : 5126,
            "count" : 176,
            "type" : "VEC2"
        },
        {
            "bufferView" : 7,
            "componentType" : 5123,
            "count" : 576,
            "type" : "SCALAR"
        }
    ],
    "bufferViews" : [
        {
            "buffer" : 0,
            "byteLength" : 1176,
            "byteOffset" : 0
        },
        {
            "buffer" : 0,
            "byteLength" : 1176,
            "byteOffset" : 1176
        },
        {
            "buffer" : 0,
            "byteLength" : 784,
            "byteOffset" : 2352
        },
        {
            "buffer" : 0,
            "byteLength" : 912,
            "byteOffset" : 3136
        },
        {
            "buffer" : 0,
            "byteLength" : 2112,
            "byteOffset" : 4048
        },
        {
            "buffer" : 0,
            "byteLength" : 2112,
            "byteOffset" : 6160
        },
        {
            "buffer" : 0,
            "byteLength" : 1408,
            "byteOffset" : 8272
        },
        {
            "buffer" : 0,
            "byteLength" : 1152,
            "byteOffset" : 9680
        }
    ],
    "buffers" : [
        {
            "byteLength" : 10832,
            "uri" : "data:application/octet-stream;base64,"
        }
    ]
}
