{
    "asset" : {
        "generator" : "Khronos glTF Blender I/O v1.7.33",
        "version" : "2.0"
    },
    "scene" : 0,
    "scenes" : [
        {
            "name" : "Scene",
            "nodes" : [
                0
            ]
        }
    ],
    "nodes" : [
        {
            "mesh" : 0,
            "name" : "PineTree_5"
        }
    ],
    "materials" : [
        {
            "doubleSided" : true,
            "name" : "PineTree_Bark",
            "pbrMetallicRoughness" : {}
        },
        {
            "doubleSided" : true,
            "name" : "PineTree_Leaves",
            "pbrMetallicRoughness" : {}
        }
    ],
    "meshes" : [
        {
            "name" : "Cube.011",
            "primitives" : [
                {
                    "attributes" : {
                        "POSITION" : 0,
                        "NORMAL" : 1,
                        "TEXCOORD_0" : 2
                    },
                    "indices" : 3,
                    "material" : 0
                },
                {
                    "attributes" : {
                        "POSITION" : 4,
                        "NORMAL" : 5,
                        "TEXCOORD_0" : 6
                    },
                    "indices" : 7,
                    "material" : 1
                }
            ]
        }
    ],
    "accessors" : [
        {
            "bufferView" : 0,
            "componentType" : 5126,
            "count" : 91,
            "max" : [
                0.1498299539089203,
                4.30079460144043,
                0.10265862941741943
            ],
            "min" : [
                -0.10255401581525803,
                -0.0004676331300288439,
                -0.10265850275754929
            ],
            "type" : "VEC3"
        },
        {
            "bufferView" : 1,
            "componentType" : 5126,
            "count" : 91,
            "type" : "VEC3"
        },
        {
            "bufferView" : 2,
            "componentType" : 5126,
            "count" : 91,
            "type" : "VEC2"
        },
        {
            "bufferView" : 3,
            "componentType" : 5123,
            "count" : 408,
            "type" : "SCALAR"
        },
        {
            "bufferView" : 4,
            "componentType" : 5126,
            "count" : 609,
            "max" : [
                1.7218400239944458,
                4.289490222930908,
                1.5706144571304321
            ],
            "min" : [
                -1.586240530014038,
                0.7641192674636841,
                -1.7154196500778198
            ],
            "type" : "VEC3"
        },
        {
            "bufferView" : 5,
            "componentType" : 5126,
            "count" : 609,
            "type" : "VEC3"
        },
        {
            "bufferView" : 6,
            "componentType" : 5126,
            "count" : 609,
            "type" : "VEC2"
        },
        {
            "bufferView" : 7,
            "componentType" : 5123,
            "count" : 2106,
            "type" : "SCALAR"
        }
    ],
    "bufferViews" : [
        {
            "buffer" : 0,
            "byteLength" : 1092,
            "byteOffset" : 0
        },
        {
            "buffer" : 0,
            "byteLength" : 1092,
            "byteOffset" : 1092
        },
        {
            "buffer" : 0,
            "byteLength" : 728,
            "byteOffset" : 2184
        },
        {
            "buffer" : 0,
            "byteLength" : 816,
            "byteOffset" : 2912
        },
        {
            "buffer" : 0,
            "byteLength" : 7308,
            "byteOffset" : 3728
        },
        {
            "buffer" : 0,
            "byteLength" : 7308,
            "byteOffset" : 11036
        },
        {
            "buffer" : 0,
            "byteLength" : 4872,
            "byteOffset" : 18344
        },
        {
            "buffer" : 0,
            "byteLength" : 4212,
            "byteOffset" : 23216
        }
    ],
    "buffers" : [
        {
            "byteLength" : 27428,
            "uri" : "data:application/octet-stream;base64,"
        }
    ]
}
