{
    "asset" : {
        "generator" : "Khronos glTF Blender I/O v1.7.33",
        "version" : "2.0"
    },
    "scene" : 0,
    "scenes" : [
        {
            "name" : "Scene",
            "nodes" : [
                0
            ]
        }
    ],
    "nodes" : [
        {
            "mesh" : 0,
            "name" : "Plant_Flowers",
            "rotation" : [
                0.10428822040557861,
                0,
                0,
                0.9945471286773682
            ]
        }
    ],
    "materials" : [
        {
            "doubleSided" : true,
            "name" : "Flowers",
            "pbrMetallicRoughness" : {}
        }
    ],
    "meshes" : [
        {
            "name" : "Plane.034",
            "primitives" : [
                {
                    "attributes" : {
                        "POSITION" : 0,
                        "NORMAL" : 1,
                        "TEXCOORD_0" : 2
                    },
                    "indices" : 3,
                    "material" : 0
                }
            ]
        }
    ],
    "accessors" : [
        {
            "bufferView" : 0,
            "componentType" : 5126,
            "count" : 259,
            "max" : [
                0.7391819953918457,
                1.0995957851409912,
                0.8120817542076111
            ],
            "min" : [
                -0.745380699634552,
                -0.08639717102050781,
                -0.772153913974762
            ],
            "type" : "VEC3"
        },
        {
            "bufferView" : 1,
            "componentType" : 5126,
            "count" : 259,
            "type" : "VEC3"
        },
        {
            "bufferView" : 2,
            "componentType" : 5126,
            "count" : 259,
            "type" : "VEC2"
        },
        {
            "bufferView" : 3,
            "componentType" : 5123,
            "count" : 990,
            "type" : "SCALAR"
        }
    ],
    "bufferViews" : [
        {
            "buffer" : 0,
            "byteLength" : 3108,
            "byteOffset" : 0
        },
        {
            "buffer" : 0,
            "byteLength" : 3108,
            "byteOffset" : 3108
        },
        {
            "buffer" : 0,
            "byteLength" : 2072,
            "byteOffset" : 6216
        },
        {
            "buffer" : 0,
            "byteLength" : 1980,
            "byteOffset" : 8288
        }
    ],
    "buffers" : [
        {
            "byteLength" : 10268,
            "uri" : "data:application/octet-stream;base64,"
        }
    ]
}
