{
    "asset" : {
        "generator" : "Khronos glTF Blender I/O v1.7.33",
        "version" : "2.0"
    },
    "scene" : 0,
    "scenes" : [
        {
            "name" : "Scene",
            "nodes" : [
                0
            ]
        }
    ],
    "nodes" : [
        {
            "mesh" : 0,
            "name" : "Rock_3"
        }
    ],
    "materials" : [
        {
            "doubleSided" : true,
            "name" : "Rock",
            "pbrMetallicRoughness" : {}
        }
    ],
    "meshes" : [
        {
            "name" : "Cube.004",
            "primitives" : [
                {
                    "attributes" : {
                        "POSITION" : 0,
                        "NORMAL" : 1,
                        "TEXCOORD_0" : 2
                    },
                    "indices" : 3,
                    "material" : 0
                }
            ]
        }
    ],
    "accessors" : [
        {
            "bufferView" : 0,
            "componentType" : 5126,
            "count" : 939,
            "max" : [
                0.36539578437805176,
                1.1872820854187012,
                0.44592878222465515
            ],
            "min" : [
                -0.4782258868217468,
                -0.12579791247844696,
                -0.4512418806552887
            ],
            "type" : "VEC3"
        },
        {
            "bufferView" : 1,
            "componentType" : 5126,
            "count" : 939,
            "type" : "VEC3"
        },
        {
            "bufferView" : 2,
            "componentType" : 5126,
            "count" : 939,
            "type" : "VEC2"
        },
        {
            "bufferView" : 3,
            "componentType" : 5123,
            "count" : 2136,
            "type" : "SCALAR"
        }
    ],
    "bufferViews" : [
        {
            "buffer" : 0,
            "byteLength" : 11268,
            "byteOffset" : 0
        },
        {
            "buffer" : 0,
            "byteLength" : 11268,
            "byteOffset" : 11268
        },
        {
            "buffer" : 0,
            "byteLength" : 7512,
            "byteOffset" : 22536
        },
        {
            "buffer" : 0,
            "byteLength" : 4272,
            "byteOffset" : 30048
        }
    ],
    "buffers" : [
        {
            "byteLength" : 34320,
            "uri" : "data:application/octet-stream;base64,"
        }
    ]
}
