{
    "asset" : {
        "generator" : "Khronos glTF Blender I/O v1.7.33",
        "version" : "2.0"
    },
    "scene" : 0,
    "scenes" : [
        {
            "name" : "Scene",
            "nodes" : [
                0
            ]
        }
    ],
    "nodes" : [
        {
            "mesh" : 0,
            "name" : "Rock_1"
        }
    ],
    "materials" : [
        {
            "doubleSided" : true,
            "name" : "Rock",
            "pbrMetallicRoughness" : {}
        }
    ],
    "meshes" : [
        {
            "name" : "Cube.001",
            "primitives" : [
                {
                    "attributes" : {
                        "POSITION" : 0,
                        "NORMAL" : 1,
                        "TEXCOORD_0" : 2
                    },
                    "indices" : 3,
                    "material" : 0
                }
            ]
        }
    ],
    "accessors" : [
        {
            "bufferView" : 0,
            "componentType" : 5126,
            "count" : 313,
            "max" : [
                0.2589521110057831,
                0.9771032929420471,
                0.6009662747383118
            ],
            "min" : [
                -0.4517226815223694,
                -0.10538479685783386,
                -0.28642910718917847
            ],
            "type" : "VEC3"
        },
        {
            "bufferView" : 1,
            "componentType" : 5126,
            "count" : 313,
            "type" : "VEC3"
        },
        {
            "bufferView" : 2,
            "componentType" : 5126,
            "count" : 313,
            "type" : "VEC2"
        },
        {
            "bufferView" : 3,
            "componentType" : 5123,
            "count" : 684,
            "type" : "SCALAR"
        }
    ],
    "bufferViews" : [
        {
            "buffer" : 0,
            "byteLength" : 3756,
            "byteOffset" : 0
        },
        {
            "buffer" : 0,
            "byteLength" : 3756,
            "byteOffset" : 3756
        },
        {
            "buffer" : 0,
            "byteLength" : 2504,
            "byteOffset" : 7512
        },
        {
            "buffer" : 0,
            "byteLength" : 1368,
            "byteOffset" : 10016
        }
    ],
    "buffers" : [
        {
            "byteLength" : 11384,
            "uri" : "data:application/octet-stream;base64,"
        }
    ]
}
