{
    "asset" : {
        "generator" : "Khronos glTF Blender I/O v1.7.33",
        "version" : "2.0"
    },
    "scene" : 0,
    "scenes" : [
        {
            "name" : "Scene",
            "nodes" : [
                0
            ]
        }
    ],
    "nodes" : [
        {
            "mesh" : 0,
            "name" : "Rock_4"
        }
    ],
    "materials" : [
        {
            "doubleSided" : true,
            "name" : "Rock",
            "pbrMetallicRoughness" : {}
        }
    ],
    "meshes" : [
        {
            "name" : "Cube.009",
            "primitives" : [
                {
                    "attributes" : {
                        "POSITION" : 0,
                        "NORMAL" : 1,
                        "TEXCOORD_0" : 2
                    },
                    "indices" : 3,
                    "material" : 0
                }
            ]
        }
    ],
    "accessors" : [
        {
            "bufferView" : 0,
            "componentType" : 5126,
            "count" : 638,
            "max" : [
                0.393062025308609,
                1.9433624744415283,
                0.24923357367515564
            ],
            "min" : [
                -0.4661616384983063,
                -0.20960000157356262,
                -0.563181459903717
            ],
            "type" : "VEC3"
        },
        {
            "bufferView" : 1,
            "componentType" : 5126,
            "count" : 638,
            "type" : "VEC3"
        },
        {
            "bufferView" : 2,
            "componentType" : 5126,
            "count" : 638,
            "type" : "VEC2"
        },
        {
            "bufferView" : 3,
            "componentType" : 5123,
            "count" : 1368,
            "type" : "SCALAR"
        }
    ],
    "bufferViews" : [
        {
            "buffer" : 0,
            "byteLength" : 7656,
            "byteOffset" : 0
        },
        {
            "buffer" : 0,
            "byteLength" : 7656,
            "byteOffset" : 7656
        },
        {
            "buffer" : 0,
            "byteLength" : 5104,
            "byteOffset" : 15312
        },
        {
            "buffer" : 0,
            "byteLength" : 2736,
            "byteOffset" : 20416
        }
    ],
    "buffers" : [
        {
            "byteLength" : 23152,
            "uri" : "data:application/octet-stream;base64,"
        }
    ]
}
